<svg xmlns="http://www.w3.org/2000/svg" viewBox="0 0 767.84 354.63"><defs><style>.cls-1{fill:#c3ae88;}.cls-2{fill:#a1a1a1;}</style></defs><title>mannaka_ushiro</title><g id="レイヤー_2" data-name="レイヤー 2"><g id="img"><path class="cls-1" d="M423.46,5a6.5,6.5,0,1,1-6.5,6.5,6.51,6.51,0,0,1,6.5-6.5m0-5A11.5,11.5,0,1,0,435,11.5,11.5,11.5,0,0,0,423.46,0Z"/><circle class="cls-1" cx="251.46" cy="210.5" r="15.5"/><path class="cls-2" d="M62.05,145a5.63,5.63,0,0,1-1.07-.11l-57-12.4a5,5,0,0,1,2.12-9.78l57.05,12.4A5,5,0,0,1,62.05,145Z"/><path class="cls-1" d="M578.2,336.63a6.5,6.5,0,1,1-6.5,6.5,6.51,6.51,0,0,1,6.5-6.5m0-5a11.5,11.5,0,1,0,11.5,11.5,11.5,11.5,0,0,0-11.5-11.5Z"/><path class="cls-1" d="M742.27,122.86a19.57,19.57,0,1,1-19.57,19.57,19.59,19.59,0,0,1,19.57-19.57m0-6a25.57,25.57,0,1,0,25.57,25.57,25.57,25.57,0,0,0-25.57-25.57Z"/><path class="cls-1" d="M194.41,73.75v6a19.58,19.58,0,0,1,5.21,38.44,19.87,19.87,0,0,1-5.24.71,19.58,19.58,0,0,1,0-39.15v-6m0,0A25.57,25.57,0,1,0,219,92.5a25.68,25.68,0,0,0-24.63-18.75Z"/></g></g></svg>