<svg xmlns="http://www.w3.org/2000/svg" viewBox="0 0 762.87 326.46"><defs><style>.cls-1{fill:#a1a1a1;}.cls-2{fill:#327d64;}.cls-3{fill:#c3ae88;}</style></defs><title>mannaka_mae</title><g id="レイヤー_2" data-name="レイヤー 2"><g id="img"><path class="cls-1" d="M266.73,68.52h-.29a5,5,0,0,1-4.71-5.27l2.49-44a5,5,0,0,1,10,.56L271.72,63.8A5,5,0,0,1,266.73,68.52Z"/><path class="cls-2" d="M314.46,157.8l1,.69s0,.11,0,.14a4,4,0,0,1,1,2.78c.09,3.15.21,6.3.3,9.45,0,.34.09.47.44.53,3.1.6,6.2,1.23,9.3,1.84a3.74,3.74,0,0,1,3.34,3.92c.1,3.13.21,6.27.29,9.4,0,.41.13.55.53.63,3.15.6,6.3,1.23,9.45,1.86a3.68,3.68,0,0,1,3.09,3.67c.15,4.31.28,8.62.43,12.94a3.92,3.92,0,0,1-.44,2c0,.07-.11.13,0,.22l-.4.55c-.21,0-.27.16-.39.26a3.66,3.66,0,0,1-4,.55c-.09,0-.15-.14-.26-.06l-.72-.52s0-.11,0-.14a4.1,4.1,0,0,1-1.11-3c-.08-3.12-.2-6.24-.29-9.35,0-.34-.12-.43-.43-.49-3.09-.6-6.17-1.22-9.26-1.83a3.75,3.75,0,0,1-3.39-4c-.1-3.1-.21-6.2-.28-9.3,0-.49-.18-.62-.62-.7-3.14-.6-6.27-1.23-9.41-1.86a3.69,3.69,0,0,1-3.06-3.64c-.09-2.71-.24-5.41-.25-8.12,0-2.29-.55-4.6.19-6.86l.58-.8c.15,0,.2-.1.28-.17a3.69,3.69,0,0,1,3.92-.66C314.29,157.78,314.36,157.89,314.46,157.8Z"/><path class="cls-3" d="M26.5,232A20.5,20.5,0,1,1,6,252.5,20.53,20.53,0,0,1,26.5,232m0-6A26.5,26.5,0,1,0,53,252.5,26.49,26.49,0,0,0,26.5,226Z"/><path class="cls-1" d="M424.86,326.46a5,5,0,0,1-3.53-8.54l41.29-41.3a5,5,0,0,1,7.08,7.08L428.4,325A5,5,0,0,1,424.86,326.46Z"/><circle class="cls-3" cx="555.5" cy="15.5" r="15.5"/><path class="cls-2" d="M762.72,72.74l-.85,1.75c-.07,0-.17,0-.21.08A6.63,6.63,0,0,1,757.42,77c-5.09,1-10.17,2.12-15.27,3.15-.54.11-.72.28-.73.87-.1,5.21-.24,10.43-.35,15.64-.09,3.63-1.86,5.78-5.43,6.53-5.06,1-10.12,2.12-15.18,3.13-.67.14-.86.38-.87,1.05-.09,5.29-.22,10.59-.35,15.88a6.1,6.1,0,0,1-5.08,6.07l-20.91,4.35a6.25,6.25,0,0,1-3.35-.15c-.13,0-.25-.13-.37,0l-1-.5c0-.34-.34-.39-.52-.55a6.07,6.07,0,0,1-2-6.41c0-.14.19-.28,0-.44l.64-1.31c.07,0,.17,0,.21-.09a6.84,6.84,0,0,1,4.57-2.66c5-1,10.06-2.09,15.1-3.11.55-.11.67-.33.68-.84.1-5.19.23-10.37.34-15.56.09-3.75,1.84-5.88,5.5-6.64,5-1,10-2.1,15-3.09.79-.16.94-.47,1-1.21.1-5.27.23-10.53.36-15.8a6.08,6.08,0,0,1,5-6c4.37-.91,8.72-1.92,13.12-2.7,3.71-.66,7.31-2.2,11.2-1.64l1.46.71c0,.25.22.29.35.4a6.1,6.1,0,0,1,2.19,6.19C762.7,72.45,762.55,72.59,762.72,72.74Z"/><path class="cls-2" d="M59.35,14.74l1.92.36c0,.06.07.16.13.18a6.63,6.63,0,0,1,3.5,3.43C67.25,23.34,69.66,28,72,32.58c.25.5.46.62,1,.48,5-1.3,10.11-2.56,15.17-3.84,3.52-.89,6.06.24,7.73,3.48,2.37,4.6,4.75,9.19,7.08,13.8a.89.89,0,0,0,1.24.56c5.13-1.33,10.26-2.62,15.4-3.91a6.09,6.09,0,0,1,7.2,3.28l9.78,19a6.38,6.38,0,0,1,.75,3.28c0,.13-.06.27.1.35l-.21,1.12c-.32.09-.28.43-.39.65a6,6,0,0,1-5.62,3.67c-.15,0-.33-.1-.43.09l-1.44-.27c0-.06-.08-.15-.14-.17a6.84,6.84,0,0,1-3.78-3.69c-2.32-4.6-4.71-9.15-7-13.73-.25-.5-.49-.56-1-.43-5,1.29-10.06,2.55-15.09,3.82-3.63.92-6.15-.2-7.86-3.52-2.34-4.55-4.7-9.09-7-13.66-.36-.72-.7-.78-1.41-.6-5.1,1.32-10.21,2.6-15.33,3.88a6.08,6.08,0,0,1-7.13-3.26c-2-4-4.19-7.9-6.11-11.93-1.63-3.4-4.07-6.46-4.57-10.36l.29-1.59c.25,0,.22-.28.3-.44a6.08,6.08,0,0,1,5.38-3.76C59.08,14.84,59.26,14.94,59.35,14.74Z"/></g></g></svg>