<svg xmlns="http://www.w3.org/2000/svg" viewBox="0 0 680.13 483.69"><defs><style>.cls-1{fill:#c3ae88;}.cls-2{fill:#a1a1a1;}.cls-3{fill:#327d64;}</style></defs><title>shitamae</title><g id="レイヤー_2" data-name="レイヤー 2"><g id="img"><circle class="cls-1" cx="384.7" cy="133.92" r="40.5"/><path class="cls-2" d="M109.43,203.49A5,5,0,0,1,105.9,202L55.43,151.56a5,5,0,0,1,7.07-7.07L113,195a5,5,0,0,1-3.54,8.53Z"/><path class="cls-3" d="M477.25,4.74l-.16,1.56s-.12.06-.14.11a5.35,5.35,0,0,1-2.52,3c-3.55,2.18-7.08,4.4-10.64,6.59-.38.24-.47.41-.31.86,1.37,4,2.7,7.93,4,11.89a5,5,0,0,1-2.28,6.42c-3.53,2.19-7.05,4.39-10.59,6.56a.7.7,0,0,0-.36,1q2.08,6,4.12,12.07a4.88,4.88,0,0,1-2.16,6L441.7,69.89a5,5,0,0,1-2.57.82c-.11,0-.22,0-.27.1l-.91-.09c-.1-.26-.36-.21-.55-.28a4.83,4.83,0,0,1-3.3-4.26c0-.12.06-.26-.1-.34l.12-1.17s.12-.07.13-.12A5.5,5.5,0,0,1,437,61.28c3.52-2.15,7-4.36,10.53-6.52.38-.23.41-.43.28-.82-1.36-3.94-2.69-7.88-4-11.83-1-2.84-.23-4.94,2.31-6.52,3.49-2.16,7-4.35,10.48-6.48.55-.34.58-.62.39-1.18-1.39-4-2.74-8-4.1-12A4.89,4.89,0,0,1,455,10c3-1.89,6.05-3.86,9.14-5.66,2.62-1.52,4.91-3.67,8-4.33l1.3.14c.05.19.24.15.37.2a4.91,4.91,0,0,1,3.36,4.07C477.15,4.52,477.08,4.67,477.25,4.74Z"/><path class="cls-2" d="M5,483.69A5,5,0,0,1,1.68,475l43.67-38.74A5,5,0,0,1,52,443.69L8.32,482.43A5,5,0,0,1,5,483.69Z"/><path class="cls-1" d="M657.55,9.42A15.59,15.59,0,1,1,642,25,15.6,15.6,0,0,1,657.55,9.42m0-7A22.59,22.59,0,1,0,680.13,25,22.59,22.59,0,0,0,657.55,2.42Z"/><path class="cls-3" d="M664.43,371l-.16,1.56s-.12.06-.14.11a5.3,5.3,0,0,1-2.51,3c-3.56,2.18-7.09,4.4-10.64,6.59-.39.24-.47.42-.32.86,1.37,4,2.71,7.93,4.06,11.89a5,5,0,0,1-2.29,6.42c-3.52,2.19-7,4.39-10.59,6.56a.71.71,0,0,0-.36,1q2.09,6,4.12,12.07a4.87,4.87,0,0,1-2.15,6l-14.56,9.07a5.16,5.16,0,0,1-2.58.81c-.1,0-.22,0-.27.1l-.91-.09c-.1-.26-.36-.2-.54-.27a4.87,4.87,0,0,1-3.31-4.27c0-.12.06-.26-.1-.34l.12-1.17c.05,0,.12-.07.13-.12a5.56,5.56,0,0,1,2.71-3.27c3.53-2.15,7-4.35,10.54-6.52.38-.23.41-.43.27-.82q-2-5.91-4-11.82c-1-2.85-.24-4.94,2.3-6.53,3.49-2.16,7-4.35,10.48-6.48.55-.34.59-.61.39-1.17-1.39-4-2.74-8-4.09-12a4.87,4.87,0,0,1,2.14-5.92c3.05-1.9,6.05-3.86,9.15-5.67,2.62-1.52,4.9-3.67,8-4.33l1.3.14c.06.19.24.15.37.2a4.89,4.89,0,0,1,3.36,4.07C664.33,370.82,664.26,371,664.43,371Z"/><circle class="cls-1" cx="569.2" cy="282.42" r="20"/></g></g></svg>