<svg xmlns="http://www.w3.org/2000/svg" viewBox="0 0 841.66 511.11"><defs><style>.cls-1{fill:#c3ae88;}.cls-2{fill:#327d64;}.cls-3{fill:#a1a1a1;}</style></defs><title>shitaushiro</title><g id="レイヤー_2" data-name="レイヤー 2"><g id="img"><path class="cls-1" d="M309.3,313.62V323h0a32.07,32.07,0,0,1,25.84,51,32.18,32.18,0,0,1-25.91,13.14,32.06,32.06,0,0,1-25.85-51A32.22,32.22,0,0,1,309.29,323v-9.38m0,0a41.45,41.45,0,1,0,24.42,8,41.37,41.37,0,0,0-24.42-8Z"/><path class="cls-1" d="M374.32,6.52a17.41,17.41,0,1,1-17.4,17.4,17.42,17.42,0,0,1,17.4-17.4m0-5.1a22.5,22.5,0,1,0,22.5,22.5,22.5,22.5,0,0,0-22.5-22.5Z"/><path class="cls-2" d="M108.23,6.17l-.76.91s-.1,0-.13,0a4,4,0,0,1-2.86.82c-3.14-.14-6.29-.25-9.44-.39-.34,0-.47.06-.56.4C93.65,11,92.81,14,92,17.07a3.73,3.73,0,0,1-4.15,3c-3.13-.12-6.26-.24-9.4-.39-.41,0-.55.1-.66.49q-1.24,4.65-2.54,9.29a3.7,3.7,0,0,1-3.88,2.82L58.4,31.81a3.84,3.84,0,0,1-1.95-.59c-.07,0-.13-.11-.22,0l-.53-.44c0-.2-.14-.28-.22-.4a3.68,3.68,0,0,1-.26-4.07c.05-.08.15-.14.08-.25l.57-.68c.05,0,.11,0,.14,0a4.15,4.15,0,0,1,3.08-.9c3.11.16,6.23.26,9.34.4.34,0,.44-.1.52-.4.83-3,1.67-6.07,2.5-9.1a3.73,3.73,0,0,1,4.2-3.09c3.1.12,6.2.23,9.3.38.49,0,.62-.13.74-.56q1.25-4.63,2.54-9.25A3.69,3.69,0,0,1,92.08,0c2.7.11,5.41.16,8.11.34C102.48.5,104.82.13,107,1l.75.63c0,.15.08.2.14.29a3.68,3.68,0,0,1,.38,4C108.26,6,108.16,6.06,108.23,6.17Z"/><path class="cls-2" d="M25.08,374l-.89-.79s0-.1,0-.13a4,4,0,0,1-.74-2.88c.24-3.14.44-6.29.67-9.43,0-.34-.05-.47-.38-.57-3-.91-6.05-1.85-9.08-2.77a3.75,3.75,0,0,1-2.92-4.24c.22-3.13.43-6.25.67-9.38,0-.41-.08-.56-.47-.68q-4.62-1.38-9.21-2.81a3.69,3.69,0,0,1-2.71-4q.45-6.46.89-12.92a3.79,3.79,0,0,1,.64-1.93c.05-.07.12-.12.06-.22l.46-.51c.19.05.28-.13.4-.21a3.66,3.66,0,0,1,4.07-.14c.08,0,.14.15.26.09l.66.59s0,.1,0,.13a4.18,4.18,0,0,1,.8,3.1c-.25,3.11-.43,6.23-.67,9.33,0,.34.08.45.38.54l9,2.75a3.76,3.76,0,0,1,3,4.3c-.22,3.09-.42,6.19-.66,9.28,0,.49.12.63.55.76,3.06.91,6.11,1.86,9.16,2.8A3.67,3.67,0,0,1,31.71,358c-.19,2.7-.31,5.41-.58,8.1-.22,2.28.09,4.63-.88,6.81l-.65.74c-.15-.06-.21.07-.29.13a3.71,3.71,0,0,1-4,.26C25.25,374,25.19,373.89,25.08,374Z"/><path class="cls-3" d="M836.66,511.11a5,5,0,0,1-3.68-1.62l-39.57-42.94a5,5,0,1,1,7.35-6.78l39.58,43a5,5,0,0,1-3.68,8.39Z"/></g></g></svg>