<svg xmlns="http://www.w3.org/2000/svg" viewBox="0 0 376.41 459.99"><defs><style>.cls-1,.cls-2{fill:#0c4b2f;}.cls-1{fill-rule:evenodd;}</style></defs><title>アセット 41</title><g id="レイヤー_2" data-name="レイヤー 2"><g id="img"><path class="cls-1" d="M372.49,263l3.92-.07c-1.06-7.66-6.23-6.27-11.3-9.61l-6-7.74c.6-2.91,2.18-2.34,3.85-4,.59-.73.24-.1.63-1.32-2.34-.77-6.64-.47-8.54-1.81-6-.3-5.1-4-8.63-6.38-1.08-.73-2.38-.42-3.29-1.25-.45-.87-.9-1.73-1.36-2.59l-8.5.16c-2.38-.76-4.25-3.7-6.63-4.46l-11.12.21c.4-2.73,3.21-4.36,2.48-7.25-.13-.52-1.78-2.05-2-2.57-.24-1.31-.48-2.62-.73-3.92-1.46-2.65-1.87-.42-2.07-5.85,4.75.19,5.4,2.22,9.86,2.43-.34-3.83-5.71-6.72-8.65-7.69-1.83-.6-3.2.28-4.59-.57-.91-.55-4.74-4.94-5.33-5.13-1-.33-2.78,1-3.25,1.37-3.13-2.78-4.1-7.71-6.75-11-1.53-1.9-4.49-1.78-6.6-3.15-1.48-1-2.35-2.85-4-3.85.6-4.14,3.46-3.72,5.77-6h.66c-.69-1.52-.64-1.23-2-1.92-1.41-.39-6,2.82-7.8,2.76l0,2c-.79.7-1.32-.63-1.32-.63-.91-.13,0,.05-.64.67-3.25.1-3-.14-2.58,2l-3.28-.59c.9-2.73.52-7.36-.83-9.15,0-.44,0-.87,0-1.31,4.12.73,1,1.1,2.68,3.22.91,1.13,3.35,1.75,4.65,3.84l1.31,0c-.22-2.67-.37-2.86-2-3.89l0-2c1.21.4.59,0,1.32.63l2,0,0-1.31a8.2,8.2,0,0,1-4-3.19l-3.27.06c0-1.77,0-3-.73-3.92l0-2c2.07.58,2.56,1.46,4,2.54a5.17,5.17,0,0,1,1.92-2,8.12,8.12,0,0,0-3.39-6.49c0-.21,0-.43,0-.65l1.31,0a19.63,19.63,0,0,0,2,3.23c0,.22,0,.44,0,.65,2.61-2.76,2-11-.91-13.72,0-.43,0-.87,0-1.31a11.85,11.85,0,0,1,6.64,5.11l1.3,0c-.66-1.84-.44-2.54-.08-4.58-2.24-1.94-3.86-4.37-6.66-5.77,0-.43,0-.87,0-1.31a22,22,0,0,1,5.29,2.53c0-.22,0-.44,0-.66h.66c-.21-5-2.1-4-4.68-5.15,0-1.65,0-2.43.59-3.28.46-2.33.9-1.78,1.9-3.31l1.31,0c-.2.66-.41,1.31-.62,2,1,1.73,3.23,2.56.74,4.57,1.34,1.51.31.7,2,.61.08,3-.16,3.73-1.21,5.26h.65c.45,1.2.06.59.68,1.3,1.19-4.9,3.82-8.42,3.66-14.46,1.65,0,2.43,0,3.28.59,1.66.79,1.87,2.35,2.05,4.54h.65c.91-2,6.69-12.21,6.29-13.86a9.24,9.24,0,0,1-1.34-1.28l.66,0c.62-.2.24-.51.65,0,1.71.77,1.82,1.64,2,3.89l1.31,0a15.37,15.37,0,0,1,2.52-5.28c-.63-3.36-5-6.9-8-7.7-.74-.55-.57-.43-2-.62.26,1.39.1,1.23.69,2-1,2.15-.86.31-1.94,1.35-2,.91-2,1.76-1.88,4.61-1.86-.4-2.42-.83-3.28-.59l-1.31,0c.64,2.7,1.91,2.71,2.71,5.19-.48.34-.36,1.14-.63,1.32-1,.66-2.52.13-3.25.71-.55.74-.43.57-.62,2-3.19-.19-2.44-.73-2.69-3.88a9.58,9.58,0,0,0-3.95-1.24c.2-.87.4-1.75.61-2.62,1.83.59,1.44.92,2.65,1.91,1-3,2.89-2.65,3.15-6.6,1.64.76.53-.36,1.33,1.28,1.64-1,1.13-3,1.2-5.91,1-.38,3.71-.75,4.55-1.39,2.76-3.51-.74-5.82-.14-7.85s1.83-1.91,2.51-5.29l-2-.61c-1.13-1.06-.82.51-1.95.69l-4-1.24c-2.21.66-3.42,4.14-6.48,3.4,0,0-5.82-8.53-6.06-9h.66c1.78-1.17,4.29,1.38,5.29,3.17l1.31,0c-.27-2-.31-1-.05-2.61-2.14-.5-2.55-1.11-5.26-1.21,0-.87,0-1.75-.05-2.62a32.8,32.8,0,0,1-7.81,2.11c1.21,2.44,3,4.85,3.42,7.79-2.36.11-5.86.46-7.21-.52-.63-1.25.35-1.34.58-3.94l-2,0,0-2a7.37,7.37,0,0,1,2.61-.71l0-1.3A10.94,10.94,0,0,0,267,79.13c-1.63,1.48-.88,1-.6,3.28-2.13.29-2.94.43-4.6-1.22-2.2.5-1.74.38-2.58,2-2-1.11-.8-.33-.7-2.6A4.15,4.15,0,0,0,255.91,82c-2.56-.78-2.26-3-4-3.86-.92-.47-1.95.7-1.95.7a6.47,6.47,0,0,1-5.29-3.18c-3,.11-3.44.26-4.54,2h-.66c.06-1.88.53-1,0-2-.18-4.22.36-5.43,2.48-7.24,0-.22,0-.44,0-.66,2,.72,4.59,4.06,2.74,6.49l0,1.31h.65c.85-1.89,2.56-4.18,3.16-6,1.55-4.6-.76-7.35,2.4-11.82,0-.22,0-.44,0-.66l1.3,0,0,1.31c-1.16,1.71.33,2.52.74,4.57l2,0,.09,4.58.65,0c0-.21,0-.43,0-.65,1.22-.94,1.51-2.25,2.55-3.32,0-4.37-.36-7.36-2.79-9.11-.08-2-.23-4.16.56-5.24.71-.62.08-.25,1.3-.68.45,1.08.91,2.16,1.37,3.24,2.32-.51,2.08-.49,2.56-2.66,3.55.45,6.26,4.12,6.69,7.73l.65,0a10.62,10.62,0,0,1,2.54-4.62c0-.87,0-1.75-.05-2.62a77.63,77.63,0,0,0-7.32-6.41c0-1.77-.09-3,.58-3.93s1.34-.29,2.62-.05c-.08-3.42-.47-4.1-2.72-5.19.4-1.21,0-.59.63-1.32,0-.21,0-.43,0-.65h.66c1.93,6.1,8.37,6.71,8.77,14.23h.65c0-.22,0-.43,0-.66,1.23-.94,1.51-2.25,2.55-3.32.16-2.45.71-2.85-.73-4.56-.58-1.69-2.63-4.45-4-5.16l-3.27.06c-.23-.87-.47-1.74-.7-2.61l-2,0c-.82-.54-1.23-1.93-2-2.58,0-.22,0-.44,0-.65l3.29.59a7.4,7.4,0,0,1,.7,2.6,9.92,9.92,0,0,0,1.26-2.64c-1.34-.72-1.32-.37-2-1.92-2.71.34-4.85.91-5.87.76a6.46,6.46,0,0,0-1.25,3.3c-2.79-.64-3.55-2-4.57.74-1.6-.73-1.63-1.36-2-3.24l-.66,0c-.95,1.52-1.75,1.11-2.58,2-1.18,1.3-1.3,3.39-2.53,4.63.15,1.54.1,1.84.71,2.61.72.59.09.24,1.32.63,1.23-2.74,2.78-3.87,4.47-6a10.09,10.09,0,0,1,1.35,2.59,10.94,10.94,0,0,0-2.59,1.35l-.65,0c0,.21,0,.43,0,.65.62.7.25.08.68,1.29l2,0c0-.65,0-1.31,0-2l2,0c0,.66,0,1.31,0,2-1.65-.32-.34-.25-2,0,1,1.24,1.47,1.52,3.31,1.9-.21.66-.42,1.32-.62,2l-7.2.14a21.78,21.78,0,0,0-2-3.23c-1.12-.59-1.85,0-2.63-.61,0,0-1.63,4.37-1.86,5.27H244c-.86-1.06-.4-.8-2-1.27L242,36.41l2,0c-.33-.68-1.91-2.27-2-2.58.41-1.54.82-3.07,1.22-4.61a40.29,40.29,0,0,0-2-5.19l-2-1.27c1.05-2.78,2.52-4.73.52-7.21-.44-3.63-2.16-3.88-4-5.82-2.54.48-3.53,1.32-3.85,4a9.62,9.62,0,0,1-3.32-2.56c-1.61.83-.54-.33-1.28,1.34-1.68-.84-1.29-.86-1.37-3.25-1.18.37-.65.19-1.3.68,0,.22,0,.44,0,.65-1.46.64-2.11-2.31-4.59-.57-.2.66-.41,1.32-.61,2l-3.92.73c-1.62.74-3.19,2.14-5.18,2.71,0,1.77,0,3,.73,3.91,0,.22,0,.44,0,.66h.65c.53-2.2,1.4-3.06,1.87-5.27,1.67.82.86-.15,1.34,1.93,2,.3,1.67.06,2.64,1.27,1.13-1.13.45-1.66,1.25-3.3,1.3,1.32.55-.55,1.28-1.33s1.95-.63,2.6-1.36h.65c-.41,1.53-.81,3.07-1.22,4.6l1.31,0c-.54,1.57.65,1.16.06,3.27-.22.76-1,.84-1.26,2.64-6.49.1-7.56,2.23-11,4.79l.72,3.25c2.61-.76,5.47,1.11,7.25,3.14l1.31,0c-.41-2.6-1-3.27-3.34-3.86.81-1.68,6-2.35,6.51-2.09l2.61,0c1,5.32-1.14,10.21,3.52,13l.06,3.27-1.32-.63c-1.19,3.8-.42,6.8-2.46,8.55-.79,1.91-.14-.31-2,.69-1,.54-2.84,3.75-3.2,4-2.31,1.49-2.68-1.61-3.31-1.9-1.45-.67-2.55.71-3.25.71-.95-.59-.38-.88-2-1.27.15-1.6-.13-2.37.59-3.28l1.31,0c1.23-1.91,0-3.52-.11-5.88,2.51-.31,2.18-1.24,3.28.59,1.46-.82.26-2.79,1.88-4.62,0,0,4.52-2.08,5.84-2.72,0-1.77,0-3-.73-3.92-.9-1-6.08,3.2-7.78,4.08-1-1.18-.6-1-2.64-1.26.21-.66.41-1.32.62-2-1.22-.39-.6,0-1.32-.63-1.52.75-.94,1-1.93,2-.7.62-.08.25-1.29.68a6.53,6.53,0,0,0-1.35-1.94c.42-2.37,1.07-2.74,3.21-3.33-.89-1.63-.36-1.11-2.64-1.26,0-.22,0-.43,0-.65h.65c0-5.77-2.33-8.07-6.07-9.71,1-2.21,1.27-.26,2.57-2.66.69-.6-.24-1.38.61-2.63-.4-4.27-3.41-5.87-6-7.74.54-3.1,1-3,.53-6.56-2.07-.24-3.69-1.09-5.24.1l-1.31,0c0,.21,0,.44,0,.65a42.62,42.62,0,0,0,4.62,2.53c-2,2.15-1.49-.27-1.26,2.64-3.06-.39-4,.47-7.2-.52,0,.22,0,.44,0,.66-.15,1-.69-1.93-.69-1.95-1.91.92-2.74.81-3.21,3.33l-1.31,0c2.14,2,2.14-.2,3.28.6,0,.65,0,1.3,0,2l2-.69c-1.88,3.6-5.06,4.47-5.05,9.91h-.66c0-.22,0-.43,0-.65-1.06-.54-2.82-4.61-3.38-5.83,1.19-1.06,1.64-1.86,3.23-2.68l0-1.31-5.22.76c-.05,2.81-.5,3.84-1.87,5.27-.83.71-.78-.21-1.94.69-3-.52-.86-1.08-2.68-3.23,0-.21,0-.43,0-.65l-1.29.68c0-.22,0-.44,0-.66a12.94,12.94,0,0,1-4-5.15c-2.81.14-4.94.72-6.51,2.08H161c1,.68,2.13.59,4.59.57a5.59,5.59,0,0,0,2,2.58c-.21,1.4-.07,1.24-.62,2,0,.22,0,.43,0,.65-1.75.57-.83-.53-1.33-1.28a1.15,1.15,0,0,0-1.3.68c-2.76.46-3.75-1-5.27-1.87-.59.73-2.14,1.24-2.57,2-.68,1.22.49,2.54-.6,3.29l-3.27.05c-1.64.82-3.4,3-5.16,4l.72,3.25C151,23.74,149.75,22,154,21.69c0,1.78,0,3,.73,3.92-.2,3.63-2.56,4.8-5.12,6,.08,2.48.17,3.39,1.39,4.56l0,1.31a16.69,16.69,0,0,0,1.89-4c2.86-.5,4.27.06,5.84-2.07l2,0c-1,2.47-4.62,3.12-7.13,4,.17,2.24.26,2.82,1.39,3.91-.13,2.67-.26,2.86-1.89,4-.76-1.38-1.44-1.71-2-3.24l-3.27.06c-.2-2.28-.05-2.26-1.36-3.24,0-.22,0-.44,0-.66h-.65c0,.22,0,.44,0,.66l-1.31,0c-.43.3,1.89,1.22,2,1.27-.64,1.55-.59,1.26-1.93,2,1.19,1.74,3.43,2.87,5.31,3.83,0,.22,0,.44,0,.65-1.88,0-3.6,0-4.57.75-.69-.33-3.82-6.91-2.77-8.46l1.95-.69c0-.44,0-.88,0-1.31-2.12-.36-2.24-1.3-3.27.71-2.31-.33-1.93.08-2.65-1.91-2.57.53-3.95,2.32-5.23.1-3.69-.24-3.64-3.65-5.37-7.1-3.4,0-4.6.06-5.85,2.08-1.67-.83-.86.14-1.34-1.94-2,.33-4.95-.38-6.53.77-2.12,1-2.44,3-3.84,4.66,0,.87,0,1.74,0,2.61A8.29,8.29,0,0,1,113,33.58c0,.22,0,.44,0,.66l.66,0a70.43,70.43,0,0,1-8.4,6.05l0,1.31a4.21,4.21,0,0,0,2.59-1.36c2.34,1.18.6,1.57,2.68,3.23,0,.21,0,.43,0,.65,1.63-.89,1.11-.36,1.26-2.64,2.38,1,1.91,3,4.65,3.84-1.26,3.71-6.2,4.41-8.37,7.35l-2,0c.15,2.18.34,3.4,1.39,4.55,0,.22,0,.44,0,.66,1.63-.66,4.54-2.23,5.16-4,1.65.76.53-.35,1.34,1.29,2.25-.5,2.34-1,3.22-2.68.85.89,1,1.81,2,2.58-1,3.51-3.27,6.57-3.73,10.54-2.19-1.07-.65-1-2-2.58-.7-.52-2.59-.74-3.3-1.25l-2,0c.57,1.76,1.28,2.37,2,3.89h-.66c0,.22,0,.44,0,.65-1.67-.82-.87.15-1.35-1.94l-2,0c0-.22,0-.43,0-.65H107c0-.44,0-.87,0-1.31l-5.24.1c0,.65,0,1.3,0,2-2.4.43-2.78,1.14-4.54,2-.29,2.33.28,3.25-1.23,4.6l0,1.31a3.37,3.37,0,0,0,1.28-1.34l1.31,0c-.43,4.84-4.32,3.36-6.41,7.32A15,15,0,0,1,85.63,74c-2.57.32-2.07.7-3.9,1.38.69,1.52.64,1.24,2,1.93-1.08,2.23-1.15.13-2.57,2-2-.82-2.5-2.63-2.72-5.18-2.39,1.79-6.21,4.15-7.06,7.32.25,1.53.49,3,.74,4.57l-1.31,0c0,.65,0,1.31,0,2-1,1.55-.71-.43-1.29,1.33-2.41-.55-2.49-1.83-2.65-1.91-2.23-1.08-1.08,1.91-3.28-.6l-1.31,0c0,.65,0,1.31,0,2l-2-.62c-1.77,1.56-1,1.41-3.22,2.68-.45-.86-.9-1.73-1.36-2.59a7.46,7.46,0,0,1,2.61-.7l0-1.31C54.72,88,53.54,90.69,50.65,93c.28,2.19.9,5.08,2.08,6.5,0,.22,0,.44,0,.65h.65c1.61-2.81,5.48-5.85,6.38-8.62l2,0A6.83,6.83,0,0,0,64.44,96c-.71,4.43-4.38,2.83-6.46,4-3.15,1.64-.86,4.19-5.8,4.69a19.49,19.49,0,0,0,4.72,7.76c0,.22,0,.44,0,.65.88-1,1.11-2.13,1.24-3.94,2.73-.51,1.55-1.65,3.86-3.35l2.61-.7c.62-.87.12-3.25.58-3.94.7-.62.08-.25,1.29-.68.62,1.54.81,2.95,2,3.89-1.43,4.4-6.9,5.32-8.32,10h-.66c.94,2.3,2.79,3.84,4,5.82,1-1.31.91-4,1.86-5.28.58-.7,1.39.19,2.61-.7l1.31,0a18.32,18.32,0,0,1-1.9,4c.28,3.51,1.53,4.7,4,5.82,0,.21,0,.43,0,.65h.66c.79-1.44,1.47-2,1.88-4,2.51,1.21,2,4.78,4,6.46,0,.22,0,.44,0,.66l1.29-.68c0,.22,0,.43,0,.65a5.08,5.08,0,0,0,2.58-2c1.9-2.1,1.77-6-.79-7.18,0-.22,0-.44,0-.65,2.65.4,2.85,1.31,5.27,1.86-1,5-.49,2.5.14,7.2,3.67-.69,2.36-2.51,4.5-4l3.26-.72c.49-.58.5-3,1.24-4,0-.22,0-.44,0-.65h.66c0,.21,0,.43,0,.65h.65a28.05,28.05,0,0,1-1.89,4c.08,1.65.07,2.43.72,3.26,1.51,1,1.82-.2,3.31,1.89,3.68-1.26,2.31-4.13,4.45-6.62.71-.62.09-.25,1.3-.68a7.4,7.4,0,0,1,.7,2.61l2,0c0,.66,0,1.31,0,2a9.42,9.42,0,0,1,3.29.6c-.21,1.2.16,2.07-.61,2.62-1.09,0-2.18,0-3.27.06-1.44.81-1.33,2.58-3.21,3.33.37,5.34,3.51,8.3,5.46,12.34a15.93,15.93,0,0,0-3.24,1.37c-.27.21-2.62,3.66-1.21,5.25-.83,1.67-.32,1.13-2.59,1.36.84.62,1.62.6,3.28.59l0,2,2,0c0-.65,0-1.31,0-2H108c0-.22,0-.44,0-.66l3.27-.06c0,.87,0,1.74,0,2.62-2.36,1.16-4.64,2.15-4.5,4-1.57-.5-1.13-.2-2-1.27h-.66c.54,1.72.87,1.51,1.38,3.24,3.71-.6,8.08-5.34,7.7-8,1-.38,3.71-.75,4.55-1.4.13-.1.71-4.08,1.23-4.6.62-1.84.07-1.33,1.92-2,.71-.62.09-.25,1.3-.68.72,2.21-.19,3.53,1.4,5.22l0,1.3-5.22.75c.25,2.26-.34,1.79,1.35,2.59-.73.63-1.55.09-2.6.71-.57.33-.85,2.4-1.26,2.64-1.18.7-1.91-.88-3.27.06-2.2.83-1.84,1.91-3.21,3.33.43,2.31,0,1.93,2,2.58,0,.66,0,1.31,0,2-1.81-.61-11.38-2.87-14.41-.38l-2,0,.6-3.28,2,0c0-1.74-.07-3.49-.1-5.23,1.69.7,1.51.7,2,2.58,1.78-.95,2.3-4.52,2.51-5.94l-.66,0c0-.22,0-.44,0-.66l-3.92.08c.07-5.08-.74-6.35-4.08-7.78-.07-1.66-.06-2.43-.71-3.26,0-.22,0-.43,0-.65,2.24.08,2.82.14,4,1.23h.65c-.57-3.9-8.6-7.26-11.23-5.68a18.89,18.89,0,0,0-4.51,4L76.37,139c-2.51-.93-6-5.86-8.53-1.14-4.92-.26-3.7-2.81-8.56-3.12.33-2.09.3-3.22.57-4.59-3.53.55-4.77-1-7.9-2.46,0-.23,0-.44,0-.66h-.66c0,.22,0,.44,0,.65l-1.32,0c.74.55.58.42,2,.62-.68,2-.25,1.61-2.58,2,1.61,3.61,4.8,2.52,6.63,4.46-.44-.21-.89-.41-1.32-.63,0,.22,0,.44,0,.66l-1.94,1.34A18.9,18.9,0,0,0,55.45,140c0,.21,0,.44,0,.65l-2,.7c0-.44,0-.88,0-1.31a2.57,2.57,0,0,0-2.6.7c-4,1.66-1,7.36-6.36,9.93a26,26,0,0,1,.76,5.88c4-.65,4.68-4,5.79-5.35,1.38-1.31.87.77,1.94-1.34l2,0c-.43,1.32-.3,2-.61,2.62-.45,1-2.79,1.74-4.53,2.71.53,4.17.6,6.43,4.11,9.73-.57,3.38-3.68,1.13-5.85,2.07l-1.29.68c.55,1.55.23,1.13,1.34,1.94-.76.61-1.07.57-2.6.7.55,1.55.23,1.13,1.34,1.94-.68.82-1.3,1.07-1.93,2l-3.28-.59a8,8,0,0,1,4.51-4c-.45-1.2-.06-.59-.68-1.3-.14-.19-2.86,1.07-3.89,2-3.11,1.88.16,1.61-1.23,3.95-.34.56-3.32,1.7-3.89,2,.54,3,1.62,2.22.07,3.93.44,1.2.06.59.68,1.29.68.31.93-.49,3.28.6l3.82-6c2.33.45,1.78.9,3.3,1.9-1.25,2.88-5.07,3.24-6.43,6-.35.77.88,5.13,2.09,6.5-.48.61-.81.72-1.29,1.34,0,0-2.54-.05-1.32-.64.14-.91.75.26.65-.66-2.39.68-4.13,1.79-6.5,2.74-.75-1.82-.16-2.33-2-3.24-.8-1-1.72-1.1-2.65-1.91-3.27.17-2.65-.44-2.58,2A7.18,7.18,0,0,1,23,187.08c-2.71.4-6.23,2.54-7.11,4.71-2.74-.56-1.35.14-1.36-2.6a28.83,28.83,0,0,1-5.18,2.72c0,3-.78,4.5-.55,5.9.38,2.31,1.81,3.65,2.09,6.5,2.53-1.29.56-1.7,1.9-3.3l1.95-.69c.63-1-.24-2,.6-2.63,1.32-1.06,4.26-.94,5.2-2.06l-.68-1.3c1.64.76.53-.35,1.33,1.28h.66c0,.22,0,.44,0,.66h-.65C20.9,200,18.9,200,16,201c-.72,2.68-2.94,5.31-.52,7.2-.71,2.09-.59,1.83-3.24,2-.4,1.21,0,.59-.63,1.32,0,.65,0,1.31,0,2,2.54-.89,2.66-2.26,5.84-2.73-.75.94-1.81,2.49-2.56,3.32.22,3.16,1,5,2.74,6.5l0,1.31c.55-.74.42-.58.61-2l1.31,0c-.29,2-.05,1.66-1.26,2.64,1.54,2.43,2,2.55,2.73,5.84l.65,0c1.43-2.52,3.59-4.28,5.12-6.64l1.3,0c.6,2-1.54,6-.49,8.51.24.59,2.46,2,2.66,2.57.76,2.19-2.07,2.73-.55,5.25,0,.21,0,.43,0,.65h-.65c0,.44,0,.88,0,1.31,3.48-.77,1.12-1.52,4.55-1.39,1.85-1.67.66-3.26,3.85-4,0,.65,0,1.31,0,2l2,0c-1.1,2.19-3.9,2-5.82,3.39-1.35,1-1.78,3-3.2,4,.22,2.67.37,2.86,2,3.89-.41,2.7-1.23,1.22-2.55,4l-1.3,0c.11-2.5-.51-5.15-.12-5.89,0-.43,0-.87,0-1.31a6.56,6.56,0,0,0-3.88,2.69c-3.87-.64-7.08-5.76-11.85-4.36-1.07.32-2.85,2.23-3.88,2.69-1.69.76-2.74.33-3.9,1.38-2.71,1.38-3.29,5-5.1,7.3.07,1.66.06,2.43.72,3.25.41.47,2.91.11,3.91-.72h.65c-1.34,3.22-1.66,5.45,1.44,7.17-.69,1.71-1.63,1.95-3.22,2.68,0,1.31,0,2.61.07,3.92l5.24-.1c.14,2.18.35,3.41,1.39,4.56.45,1.2.06.59.68,1.29.2-.87.41-1.75.6-2.63,1.54-.15,1.84-.09,2.61-.7h.66c-.37,3.83-2.86,5.13-.51,7.86,0,.43,0,.87,0,1.31a7.89,7.89,0,0,1,2.59-1.36c1,1.95,2.16,3.49,2.73,5.84,5.86.07,6.84-2.26,8.39-6,1.66,0,2.44,0,3.29.59l1.31,0c-.66,5.38-4.08,3.31-5.13,6l.69,1.95c-.18,1.83-2.06,3.6-3.18,4.64l0,2a4.21,4.21,0,0,0,2.6-1.36c1.1,1.1,1.08,3.27,2,4.55.81.46,2.37-.68,3.24-2,2.33.46,1.77.9,3.31,1.9-.15,1.78-.38,3.51-1.23,4.61,0,.87,0,1.74.05,2.61a19.37,19.37,0,0,1,4.57-.74c-.18,2-.37,3.93-.55,5.91a8.4,8.4,0,0,0,6.46-4.71l1.31,0c2.32,3.4,4.46,5.07,4.78,11h.66a15.82,15.82,0,0,1,2.53-4.63c.86.05,6,5.92,6.7,8.38,1.6,2.79-4.07,9.14-6.35,10.59,0,.22,0,.44,0,.66l6.52-.78c.27,1.39.11,1.23.69,1.95.41.25,3.08,0,5.24-.1.26,1.39.11,1.23.69,1.95.2,2.29,0,2.26,1.37,3.25,1.22.67,2.72-.61,3.22-2.68A17.08,17.08,0,0,1,82.76,341c.59-.82.66-3.12,1.23-4,0-1.65,0-2.43.6-3.28,1,.87,5.14,2,7.26,3.79a8.92,8.92,0,0,0,2.6-1.36c.41-1.09.83-2.2,1.25-3.29-2.4-1.71-2.5-3.6-6.62-3.81,0-.21,0-.43,0-.65h.65c1.42-1.68,1-.92,3.26-.71-.13-1.88-.56-.94,0-2,.54-1.47.54-.94,1.27-2,4.43,0,4.66,2.31,5.34,5.79a4.25,4.25,0,0,1,2.64,1.26c2.83-.7,1.5-.3,1.26-2.64,5.11.38,2.22,2.43,4.68,5.15,0,.22,0,.44,0,.65a88.61,88.61,0,0,0,7.09-5.36c3,1.24,5.15,4.69,8,6.39,0-.22,0-.43,0-.65h.66c0-2-.07-3.93-.11-5.89a34.27,34.27,0,0,0-8-5.75c-.36-5.42-.54-9.4,2.37-13.12,2.83-2.17,8-1.7,11-4.79h.65L128,310.1a15,15,0,0,1-5.22.75c0,.22,0,.43,0,.65h-.66c.45,1.2.06.6.68,1.3.14,5.75,2.57,5.13,5.38,7.75l1.31,0c-.75-1.52-1-.94-2-1.93l-.65,0c0-.23,0-.44,0-.66l10.46-.19c-.21,1.92-.26,2.27-1.25,3.29l.09,4.58c2.27-1.55,4.46-4.85,5.75-7.31,1.53.44,1.79,1.64,2.65,1.92l3.92-.73c.45.14,2.21,1.86,2.65,1.91,1.84.24.61-1.08,1.29-1.33,1.74-.64,4.88.58,5.24.56,3.09-.19,4.8,2.9,7.23,1.82.26-.11,1.38-2.24,2.57-2.66,3.58-1.26,6.11.8,9.13-1.48,2.24-.11,5.3-.38,6.56.53,4.73,6.16.82,24.32,2.59,34,.57,3.07,1.47,18.71-.16,26.18q.13,7.51.28,15c-.9,6.55-.79,14.93-2.23,21-1.37,5.77-.48,10.54-2.32,15.74-2.26,6.38-8.12,10.52-8.83,17.83,4.22-.17,7.11-1.33,10.43-2.15,3.6-.9,5,1.74,7.88,1.16,2-.41,5.12-2.44,7.14-2.75,1.79-.28,4.28,1,5.24.55a5.07,5.07,0,0,0,3.86-4c1-2.52-6.89-6.73-8.05-10.32-1.86-5.78,1.47-13.14-1.63-17.64,1.31-2.4-.43-21.49-1.13-25.5q-.3-15.69-.59-31.4-1-18.94-2-37.91c7.93.14,12,5.13,17.17,8.18,2.54,1.51,4.41.46,5.31,3.83a9.23,9.23,0,0,0,2.59-1.35,6.4,6.4,0,0,0,1.34,1.93c.25.35,3.45-1,5.89-.11,1,.36,2.46,2.15,3.32,2.56l2.62-.05c2,1.23,2.16,5.75,2.12,8.47l2,0c1.09-2.24,2.56-3.24,3.16-5.95,1.67.71,2.33,1.8,2.69,3.88,1.71-.58,1.75-.69,2.58-2,3.17.92,5.13,3,8.57,3.76-1.89,3.31-2.19,6.36-3.75,9.23,3,2.22,3.79,2.23,7.23,1.83-.71,1.37-1,1.19-1.25,3.3-2.34-.66-2.78.08-5.21.75,0,1.65,0,2.43-.6,3.28.26,1.39.11,1.23.69,1.95,1.11,1.51,2.15-2.2,3.23-2.68,1.4-.62,1.93.85,2.62.61,1.29-.44,1.12-1.72,1.92-2.65,1.29-1.52,2.25.6,3.22-2.68l1.31,0c0,.22,0,.44,0,.66l.65,0c-.77,2.69-6.16,9.83-8.29,11.28.42,2.31,0,1.94,2,2.58.72.59.09.25,1.32.63,1-1.44,2.89-2,3.86-3.34,1.44-2,1.11-3.95,2.53-4.63,0-.21,0-.44,0-.65,1.44.66,2.4,2.68,2.7,4.53,1.93.21,2.28.26,3.3,1.24a7.83,7.83,0,0,0,4.49-4.66l1.31,0a8.89,8.89,0,0,1-1.26,2.64c1,.77,1.69,1.79,2.67,2.56,1.85,1.34,1.63-.75,2.64,1.27,1.53-.16,1.84-.1,2.6-.71.65-1,.07-.08,0-2a3.37,3.37,0,0,1,1.34,1.28c2.77-.55,2.17-1.38,3.87-2.69-.17-3.56-1-4.29-1.44-7.17,1.84.17,2.9.35,3.95,1.24l2,0A66,66,0,0,0,287.1,351c.2-1.31.39-2.63.59-3.94,1.87-.13.93-.56,2,0a9.36,9.36,0,0,1,3.28.6c0,.87,0,1.74.05,2.61,2.63-.44,3.47-1.5,4.51-3.35l3.28-.06a6.18,6.18,0,0,1-1.9,3.31,8.26,8.26,0,0,0,.7,2.6c5.47-.48,3.58-1.78,7.21.52,1.37-2.21,3.14-2.94,3.81-6,2.25.89,5.5,8.33,6.09,11h.66c1-1.75,2-2.95,2.52-5.28a9.71,9.71,0,0,1,3.33,3.2,1.78,1.78,0,0,0-.05-2.61c0-.44,0-.88,0-1.31h.65c.92,2,2.12,3.74,2.73,5.84l3.28.59a9.56,9.56,0,0,0-5.39-8.41l0-1.31a25.18,25.18,0,0,0,5.9.55l-.06-3.27.65,0c0,.22,0,.44,0,.66,4.8.25,5,2.44,7.29,5.1.63.17.26.51.65,0a20.09,20.09,0,0,0,1.93-2c-.42-2.61-1.75-4.48-4-5.16,1.06-.8,4.13-.63,5.21-1.41h.65c0-.22,0-.44,0-.65a9.3,9.3,0,0,0-3.95-1.24c.4-1.21,0-.6.63-1.32-1-4.38-1.95-1.09-3.33-3.21-.49-.75-.49-2.73-.71-3.26-1.39.27-1.24.11-2,.69-.55.74-.42.57-.61,2-4.09-.46-5.09-2.7-7.93-3.78l-3.27.06c-1.77-1-1.65-4.34-4-5.16-3.51-1.22-6.71.67-9.18-1.14-2.82-.79-3.63-2.56-4.68-5.14l2.58-2c0-.87,0-1.74-.05-2.61-2.84-.52-4.72-.59-6.51,1.43-2.27-.42-2.39-.95-3.32-2.56a4.73,4.73,0,0,0-3.23,2.68l-1.3,0a16,16,0,0,1,1.24-3.3c0-.44,0-.87,0-1.31a10.36,10.36,0,0,0-3.86,3.35c-7.38-.5-3.37-2.37-10.48-.46-.47-.93-1.77-2.47-2-3.24.19-1.74.37-3.5.56-5.24-.75-1.66-4.37-2.57-2.07-5.85,0-.66,0-1.31,0-2l-5.92-1.85c-2.92-.46-4.49,2.51-7.19.79-2.35-1.09-.53-1.41-2-2.58-1.72-1.37-3.8-1.6-5.29-3.17H254c.43,3.13,1.68,7.73,3.46,9.75,0,.65,0,1.31,0,2-4.35.91-7.9-.19-12.45-.42a15.48,15.48,0,0,0-1.37-3.25c0-.22,0-.43,0-.65,1.54.09,1.84,0,2.63.6,2.47-.09,2.87,0,3.9-1.38h.66c-1-2.85-5.34-5.88-8-7.05.5-4.37.66-7.89-2.15-10.42,1.24-4,9-6.21,12.94-7.45,4.28-1.33,9.05,1,11.75-1.52a8.62,8.62,0,0,1,4.64,3.18c2.24-.17,2.82-.25,3.9-1.38,3.29.46,4.14,3.39,4.7,6.46l.66,0c1.71-2.81,3-3.61,2.48-7.24,2.72.66,4.19,2.24,5.22-.75,2.68,1.15,3.09,4.77,5.35,6.44-2.06,3.13-4.64,3.5-5.07,8.6,4-.61,5.75-2.55,9.1-3.44,0,.22,0,.44,0,.65H297a8,8,0,0,1-3.83,4.65c0,1.78,0,3,.72,3.91l.69,2c4-.24,4.61-1.44,7.15-2.75.4-1.26.45-4.83,1.2-5.92l0-1.3c1.94,1.19,4,3.15,5.94,2.5,1.66-.07,2.43-.06,3.26-.71.18-.63.5-.26,0-.66-1.42-4-11.21-5.14-14.55-8.23l-1.31,0c.81-.64,3.57-1.05,4.55-1.39l.63-1.32-5.26-1.87a8.88,8.88,0,0,1,1.25-2.64l5.23-.09c.55.16,2.11,1.76,2.66,1.91,2.77.75,6.85-1.75,8.47-2.12,2.36-.55,2.6,1.69,4.6,1.22.9-.21,2.07-1.89,2.56-2.66.6.72,1.06,3,1.39,3.9,2.46-.42,2.89-1,3.87-2.69,2.54.3,2.94,1,4.62,1.87-.63,3.58-2.55,2.47-3.16,6l3.93-.08c.84-1,2.51-1.62,3.22-2.67l1.23-4c1.76-1.59,3.76-.76,5.18-2.71,2.1.64,2,1.37,3.32,2.55,1,1,2.85-1.47,4.55-2.05,2.66,2.53,4.78,2.07,5.36,7.1,2.21-1,1.57-2.15,4.53-2.7.26,2,.51,3.92.77,5.88a21.53,21.53,0,0,1,6.62,4.45H367c.48-2.8.91-6.67,2.46-8.55-.37-3.31-1.53-3.57-2.73-5.84C369.92,269.07,371.07,266.55,372.49,263ZM288.8,91.16c1.59-.74,2.24.94,5.25,1.21,0,.65,0,1.31,0,2a8.83,8.83,0,0,1-5.27-1.86c-.62-.71-.25-.08-.68-1.3ZM285.05,101l2.66,1.92c-.55,1.47-.55.94-1.27,2C284.3,104,284.68,102.81,285.05,101Zm-31-46.53c.57.71.44.55.69,2l-1.31,0C253.67,55.82,253.88,55.17,254.09,54.51Zm-11.26-7,0,2c-1.67-.82-.86.15-1.35-1.94ZM224.61,17.76c0,.22,0,.44,0,.65l-.65,0,0-1.31c1.22.4.6,0,1.32.63ZM160,27.47c-1.88.13-.93.56-2,0l-1.31,0c.21-1.39.06-1.23.62-2,.51-.51,1.42-.85,1.94-1.35H160ZM115.12,41.4c0,.21,0,.43,0,.65l-1.31,0c.55-1.47.55-.94,1.27-2C115.67,41.18,115.59,40.3,115.12,41.4Zm.5-8.52H115l-.68-1.29h-.65c0-.22,0-.44,0-.65a9.88,9.88,0,0,0,3.22-2.68,6.1,6.1,0,0,1,1.34,1.94C116.58,31.06,116.22,30.94,115.62,32.88ZM64.36,91.42c-1.67-.82-.86.15-1.35-1.94l1.32.63ZM71.85,107a3.37,3.37,0,0,0-1.29,1.33l-1.3,0c.2-.66.41-1.31.61-2l2,0C71.84,106.55,71.84,106.76,71.85,107Zm2.41-11.17A6.9,6.9,0,0,1,69,93.3h-.66c0-.22,0-.44,0-.65A12.7,12.7,0,0,0,72.18,90l1.31,0c-.35,1.44.77,4.17.74,4.57Zm.41-13.1H74L74,84l-1.31,0c.21-.66.41-1.32.62-2C73.35,82.09,75.92,82.22,74.67,82.72Zm1.24,31.39,2,0c-.4,1.22,0,.6-.63,1.32,0,.22,0,.44,0,.66H76.6ZM79.25,118l-2,0c.21-.66.41-1.32.61-2,.61.49.73.81,1.34,1.29C79.24,117.54,79.24,117.75,79.25,118Zm-1.59-15L77,101l2.62,0c0,.22,0,.44,0,.65h.65A9.81,9.81,0,0,1,77.66,103Zm4.56-1.39a22.93,22.93,0,0,1-4.62-1.88c-.69-1-.07-.08,0-2,1.81.66,1.85,1.38,4,1.89.44,1.19,0,.59.67,1.29C82.21,101.12,82.21,101.34,82.22,101.56Zm3.3,1.9c0,.22,0,.43,0,.65-1.62-.76-.7-.68-1.36-2.59l2,.62C85.75,103.35,86.12,102.73,85.52,103.46Zm.16-26.83H85c0-.44,0-.87,0-1.31h.65Zm17.41-13.41,1.31,0c-.08.23-1.13,2.71-1.27,2C101.89,64.5,103.11,64,103.09,63.22ZM101,88.77h.66c0-.21,0-.43,0-.65a8.65,8.65,0,0,1,2.64,1.26l0,1.31c-1.57-.5-1.13-.2-2-1.28C102.27,89.4,99.73,89.37,101,88.77Zm-5.42,25c-3.3.19-4.44-1.83-7.22-1.17.21-.66.41-1.32.62-2a20.33,20.33,0,0,0,6.57,1.84Zm-6-5.12,2,0C90.45,109.26,90.64,109.29,89.54,108.62Zm5-10.56,0,1.3-1.31,0c0-3.25-.25-3,1.91-2.64-.24-1.09-.47-2.18-.71-3.26-1.22-.4-.6,0-1.32-.63-.73,1.3-.19.49,0,2l-2.62-.61c.81-1.24,1.31-1.08,1.91-2.65l4.63,2.53A9.16,9.16,0,0,1,94.58,98.06Zm3.71-11.85-1.31,0c.21-.66.41-1.32.62-2l1.32.63c0,.22,0,.43,0,.65h-.65C98.28,85.77,98.28,86,98.29,86.21Zm1.42,5.86c0,.44,0,.87,0,1.31h-.66a8.57,8.57,0,0,1,.61-2.63c1.21.4.59,0,1.32.63Zm5.67,23.45c0,.88,0,1.75.05,2.62h-.66c0-.22,0-.44,0-.65-3-.56-.82-.72-2.66-2.57.34-1.55,0-2.66,1.28-1.33.73-1.31.19-.5,0-2,2.74.59,1.79,1.6,4,2.54C106.49,115.85,107.46,115,105.38,115.52ZM18.73,206.13c0,.22,0,.44,0,.66l-1.31,0c.21-.66.42-1.32.62-2l1.31,0C19,206,19.33,205.41,18.73,206.13Zm1.27-2c1.61-2.87,1.41-1.31.57-4.59l2,0a3.44,3.44,0,0,0,1.34,1.28c-.29,2.09-.54,1.92-1.25,3.29Zm5.38,7.76c-1.57-.5-1.12-.2-2-1.27l2,.61C25.37,211.46,25.38,211.68,25.38,211.9Zm6.06,9,.65,0,0,1.31h-.65Zm4.13,11c-1.65.08-2.43.06-3.25.71l-.66,0c.21-1.4.07-1.24.62-2,0-.21,0-.43,0-.65h.65c0,.22,0,.43,0,.65,1.5-.75,1.33-1.18,1.92-2.65.6.48.72.8,1.33,1.28A8.15,8.15,0,0,1,35.57,232Zm3.9-1.38,1.31,0,0,1.3-1.31,0Zm-.95,19-.65,0c0-.22,0-.44,0-.66l-1.3,0c-.94-1,.88-2.22.6-2.63-.6-.89-.8.41-1.33-1.29A12.45,12.45,0,0,0,39,240.43c2,.67,1.83,1.52,3.32,2.56C41.24,245.57,39.24,246.29,38.52,249.6ZM65.33,143.75l2,0c0-.88,0-1.75,0-2.62h.65c0,.21,0,.43,0,.65,1.12.81,2.16,1.69,1.35,2.59-1,2-1.12,1.39-3.9,1.38C65.36,145.06,65.35,144.41,65.33,143.75Zm1.63,17c0,.65,0,1.3,0,2-1.68-.83-.87.14-1.35-1.94Zm-9.52-19.46c.53.59.51,1.2.71,3.26-2-1-1.32-1.83-2-3.89C57.33,141.05,56.71,140.69,57.44,141.28Zm-6.52,36.77,2.63.6c-.82,1.67-.31,1.12-2.59,1.36C51,179.36,50.94,178.7,50.92,178.05Zm-6.25,50.5-1.31,0c.7-2.31,2.07-2.82,3.19-4.64,1,2.16-.42.76-1.27,2,.23.65.45,1.3.69,2C44.77,228.32,45.37,227.93,44.67,228.55Zm2.79,9.11-2,0,0-2,2,0C47.43,236.35,47.45,237,47.46,237.66Zm-2.83-46.41L47.15,186c2.29.11,1.77.25,3.27-.06-1,2.76-2.74,2.31-3.16,5.94A7.68,7.68,0,0,0,44.63,191.25Zm6.65,40.45c0,.43,0,.87,0,1.3l-2,0c.21-.66.42-1.32.62-2Zm2.11,8.46c0,.22,0,.44,0,.66-2.12-.92-2.45-2.74-4.65-3.84.88-1.93,2.4-2.06,5.2-2.06C53.81,237,53.91,239.26,53.39,240.16ZM53.26,233,52,233c.52-3.52,2.53-5.53,3.11-8.56l2,0c0,.21,0,.43,0,.65l.65,0c-.47.7-.88.17-1.3.68-.23.3.73,1.08,0,2,.27,1.38.11,1.23.69,1.94,0,.22,0,.44,0,.66h.66c0-.22,0-.44,0-.66l1.31,0a9.36,9.36,0,0,1-.6,3.28C56.77,233.29,54.81,234.11,53.26,233ZM60,244h-.66c-.39,1.21,0,.6-.63,1.32,0,.22,0,.43,0,.65l-.66,0a8.15,8.15,0,0,1,.61-2.63l1.31,0C60,243.53,60,243.75,60,244Zm-2.74-6.5.06,3.28-2.61.05c.56-2.35,1.51-2.91,2.53-4.63a8.18,8.18,0,0,1,2.62.6C58.76,238.79,59.54,237.58,57.27,237.47Zm1.42-64.15c-3-.41-2.41-1-5.24-.56.2-.65.41-1.31.61-2l2.62,0c.86,1.06.4.8,2,1.27C58.67,172.45,58.68,172.89,58.69,173.32Zm5.16-4c-3.57-1.13-5.16-3.93-8.58-3.77.17-2.7.75-3.1,1.21-5.26,1.91.91,2,3.13,3.36,4.52.93.19,1,.13,1.94-1.34a8.89,8.89,0,0,1,2.64,1.26C63.79,167.05,63.1,167,63.85,169.3Zm-2.18-11.74c-.73-.59-.09-.24-1.32-.63l1.2-5.91c2.63,1.83.75,3.32,3.36,5.17A6.42,6.42,0,0,1,61.67,157.56Zm4,38.53c.21-1.39.06-1.23.61-2,0-.22,0-.44,0-.66h.66a7.68,7.68,0,0,1,.7,2.61ZM68.4,167.9l-.65,0c0,.22,0,.43,0,.65-1.67-.82-.86.14-1.34-1.94,1.21.4.59,0,1.32.63h.65C68.4,167.47,68.4,167.69,68.4,167.9Zm11.7-4.14c-.75,1.07-1.6-.53-2.56,2.67l-3.91.72c-.22,1.4-.07,1.24-.62,2,0,.43,0,.87,0,1.31h-.65c0-.22,0-.44,0-.65l-1.3,0,.6-2.63-4-1.24c.11-2.29.25-1.77-.06-3.27,1.4.22,1.24.07,2,.62h.65c.15-4.35,1-5.63.47-9.83,2.33.41,5.94,3.79,8,5.09.55-1.31,1-4.64,1.85-5.92,0-.44,0-.87,0-1.31h.65a3.3,3.3,0,0,0,1.34,1.28S80.1,163.76,80.1,163.76Zm.35-16.37-1.3,0a33.62,33.62,0,0,1-1.41-5.21c2.47,1,2.67,1,5.91,1.2,0,.22,0,.44,0,.65h.66C83.43,145.8,81.57,145.76,80.45,147.39Zm13.81,3.67c-.46,1.23-.26.82-1.3,0Zm-5.5-14.29,1.31,0c0,.43,0,.87,0,1.3l-1.3,0Zm.1,5.23c0-.21,0-.43,0-.65,1.55.61,1.41,1.11,2.65,1.91,0,.87,0,1.75,0,2.62a10.43,10.43,0,0,0-3.94-.58C87.82,143.38,87.87,143,88.86,142Zm-.4,13.75c-.72-.59-.09-.24-1.32-.63,0-.65,0-1.3,0-2l3.29.59c-.4,1.22,0,.6-.63,1.32S89.68,155.32,88.46,155.75Zm8.8,85.56c0,.22,0,.43,0,.65-1.46-.66-2.58-2.56-3.35-3.86l-2,0,0-2,2,0c.83,2.05,2,2.43,4,3.2C97.66,240.73,97.81,240.57,97.26,241.31Zm3.84-4.65c0,.21,0,.43,0,.65-.58-.72-.45-.55-.69-1.95l1.3,0C101.33,236.55,101.69,235.93,101.1,236.66Zm10.15,88.14-1.31,0c0-.44,0-.87,0-1.31l1.3,0ZM175.89,107l2,.62a4.19,4.19,0,0,1-1.25,2.64c0,.21,0,.43,0,.65H176C175.43,109.19,175.75,109.37,175.89,107Zm2.2,12.39c.31,2.29.56,2.88,2,3.89,0,.43,0,.87,0,1.31-2.74-.49-3.13-.45-5.22.75a3.28,3.28,0,0,0-1.33-1.28,10.38,10.38,0,0,1,1.24-4Zm-.36,86.38c1.22.4.6,0,1.32.63h-.65c0,.22,0,.44,0,.66h-.65Zm-1.51-11.1c.2-.65.41-1.31.61-2l1.31,0c-.4,1.21,0,.59-.63,1.32,0,.22,0,.43,0,.65Zm-3.11-26.11c.15-.92.75.25.64-.67.63.7.25.08.68,1.3C174.43,169.2,171.89,169.16,173.11,168.57ZM175,199.29h-.65l-.69-2C174.74,198.17,174.47,197.72,175,199.29ZM172.67,145l-1.31,0c.55-1.48.54-1,1.28-2l2,.61C174.1,144.18,173.19,144.52,172.67,145Zm.05,37.3c-1.67-.83-.87.14-1.35-1.94,1.21.4.6,0,1.32.63H172ZM173.9,70.4a4.74,4.74,0,0,1-2.55,3.32A10,10,0,0,0,172.67,77h0v.08a9,9,0,0,1,1.41,5.12l-2.62,0c-.27-1.39-.11-1.23-.69-2-1.64-2.18-4.3-2.62-5.95-3.16,0-1.52-.06-3-.08-4.57a5.2,5.2,0,0,1,2,1.92l1.3,0a4.56,4.56,0,0,0-2.66-2.56c.4-1.22,0-.6.63-1.32v-.66h.65a7.19,7.19,0,0,1,.7,2.6h.66c0-.21,0-.43,0-.65l.65,0A5.06,5.06,0,0,0,166,67.93c0-.65,0-1.31,0-2a5.2,5.2,0,0,1,2,1.92c.83-1.16.79-5.21,1.19-6.56h.65c0-.22,0-.44,0-.65C171.69,63.13,171.68,68.1,173.9,70.4Zm-6,101.54c-.2.65-.41,1.31-.62,2l-2,0c.54-1.47.54-.94,1.27-2Zm1.17-112.57.65,0c0,.22,0,.44,0,.66h-.66c0,.22,0,.43,0,.65-1.67-.82-.86.15-1.34-1.93C169,59.13,168.39,58.77,169.11,59.37Zm-2.05-39.88c-.4,1.21,0,.59-.63,1.32,0,.22,0,.43,0,.65l-.65,0-.69-2ZM156.45,47.17l1.31,0c-.55-1.56-.23-1.13-1.35-1.94,0-.22,0-.44,0-.66l3.29.6,1.24-3.3c1.16-1.84-1.42-3.72-3.33-3.21.4-1.21,0-.6.63-1.32,0-.22,0-.44,0-.65,4.6,1.66,4.32,6,9.3,7.67-.27,4-2.14,4.22-3.8,6.62-1.64-.76-.53.35-1.33-1.28-2.67.22-2.86.36-3.89,2-2.48,0-3.4-.05-4.61-1.22-.57-.72-.44-.56-.69-2C155.12,48.26,155.47,48.19,156.45,47.17ZM163,83l-2,0c0-.87,0-1.74-.05-2.61l1.31,0A7.4,7.4,0,0,1,163,83Zm-10.59,99-1.3,0c0-1.09,0-2.19-.06-3.27l2.61-.06c.45,1.2.06.6.68,1.3C153.66,181.59,153.42,181,152.42,182ZM154.74,201l0,1.31-.66,0c0-.44,0-.88,0-1.32Zm-2.26-51c0-.44,0-.88,0-1.31l1.3,0,0,1.31Zm.55-5.9c0-.22,0-.44,0-.66,3.6-1.84,3.94.12,5.82-4l1.3,0a12.63,12.63,0,0,1-3.13,7.25c0,.22,0,.44,0,.66a5.42,5.42,0,0,1-3.33-3.22Zm.83-25.54c.2-.66.41-1.32.62-2l2,0c0,.22,0,.44,0,.66a3.32,3.32,0,0,0-1.28,1.32Zm.95-54.33a15.16,15.16,0,0,1,1.24-3.29c1.09.82.82.37,1.35,1.94.57,1.09.49.21,0,1.3C156.63,64.71,156.78,64.24,154.81,64.21Zm1.58,15,0,1.31-1.31,0c0-.44,0-.88,0-1.31ZM151,72.14l1.32.63-.6,3.28c-1.39-.21-1.23-.07-2-.62h-.65C149.66,73.64,150.23,73.52,151,72.14Zm-4.88,19.07a15.35,15.35,0,0,0,2.68,3.22c0,.21,0,.43,0,.65h.65c.93-1.64,2-2.57,2.53-4.63l1.31,0A37.81,37.81,0,0,0,156,95c.79-1.17.24-2,.61-2.64,0-.21,0-.43,0-.65a16.33,16.33,0,0,1,2,3.89c-2,.91-4.76,2-6.53.78-.55.73-.42.57-.61,2l-2,.69c-.46-1.3-.92-2.6-1.39-3.9l-3.28-.59c.22-1.4.07-1.24.62-2,0-.43,0-.87,0-1.3Zm2.19,47.07s1.3,1.23,1.33,1.28C149.28,140.13,148.4,138.38,148.34,138.28Zm6.87,158.22a8.18,8.18,0,0,1-.6,2.63l-2.62.05c0-.88,0-1.75,0-2.62h.65c0-.22,0-.43,0-.66A8.35,8.35,0,0,1,155.21,296.5ZM145,207.05c.2-1.1.4-2.19.59-3.29l2.62,0c0,.44,0,.88,0,1.31h.66c0,.22,0,.44,0,.65l-3.24,2c0-.22,0-.44,0-.66Zm-8.88-20.12c0-.22,0-.44,0-.66,2-.69,2.45-.48,4.56-1.39,1.59,2.54,1.45,2.56,4,2.54,0,.65,0,1.31,0,2-2.79-.82-4.71-2.24-6.53.78l-1.31,0c.71-1.37,1-1.19,1.25-3.29ZM133,192.22c-.78-1.27-.2-.49,0-2,.81.74,1.21,1.83,2,2.58,0,.43,0,.87,0,1.3l-.65,0c0-.22,0-.44,0-.66C132.68,192.74,133.79,193.86,133,192.22Zm-2-39.22c.21-.66.42-1.32.62-2,3.7.81,2,2.09,5.92,1.85-.54,1.48-.54.95-1.27,2C133.17,154.56,133.49,153.64,130.94,153Zm-.81-8.5h.66c0-.22,0-.43,0-.65,2.64.3,1.27.8,4,1.89-.48.61-.8.72-1.28,1.33-1.67-.82-.86.15-1.34-1.94l-2,0C130.14,144.94,130.14,144.72,130.13,144.5Zm-1.06-21.57c0-.44,0-.87,0-1.31h.65l0,1.31Zm3.49-23.62,2,0c0,.22,0,.44,0,.66h.66a8.89,8.89,0,0,1-1.26,2.64c-1.67-.83-.86.14-1.35-1.94-.57.78-.53,1.09-.6,2.63-1.34-.91-.86-1.09-3.3-1.25,0-.43,0-.87,0-1.31C129.58,100.33,131.81,99.9,132.56,99.31Zm-2.81-10.42a15.59,15.59,0,0,1,.58-3.94l2,0c-.42,1.32-.3,2-.61,2.63l0,1.31Zm6.31,92.8,1.31,0c-.85,1.25-.91.54-1.26,2.64l-1.31,0A8.77,8.77,0,0,1,136.06,181.69ZM139.92,143c0-.65,0-1.31,0-2l2.63.61C141.68,143.32,142.19,142.78,139.92,143Zm1.59-55,1.31,0c0,.66,0,1.31,0,2h-.66Zm2.9,50.33c-1.24-.68,0-1.14,0-2l1.3,0C145.6,136.59,144.55,139.08,144.41,138.35Zm2.74,41.83,0,1.31h-.65l0-1.31Zm-1.87,4.61c.62.7.25.08.68,1.3C144.6,185.55,145.44,186.25,145.28,184.79Zm-1-123.65c0,.22,0,.44,0,.65l-1.31,0a7.48,7.48,0,0,0,.61-2.63l1.31,0C144.68,60.56,144.83,60.4,144.28,61.14Zm-2.16-10.43c1.22.4.6,0,1.32.63h.65c-.75,1.64.36.53-1.28,1.33l0,1.31h-.66Zm-.18,25.52,2,.62c0,.22,0,.44,0,.65l-2,0Zm-1.21,5.26h.66c0,1.3,0,2.61.07,3.92l-1.31,0C140.35,84.11,140.54,82.8,140.73,81.49Zm1.61,51,0,2c-1.67-.82-.85.15-1.34-1.94Zm-2.57,2.66c1.3.15.2.67,1.31,0l1.31,0c0,1.66,0,2.44-.59,3.29,0,.43,0,.87,0,1.3l-1.31,0c-.72-.59-.09-.24-1.32-.63A11.34,11.34,0,0,1,139.77,135.16ZM134,36.46c0,.22,0,.44,0,.66h-.66c0,.22,0,.44,0,.65-.57-.71-.44-.55-.68-2C133.12,36.05,133.56,36.25,134,36.46Zm-2.39,11.83,3.27-.06c0,.87,0,1.74.05,2.61a4.18,4.18,0,0,1-2.64-1.26h-.66C131.62,49.16,131.61,48.72,131.61,48.29Zm1.63,17.63c.56-.73.43-.57.62-2h.66c0,.21,0,.44,0,.65l1.32.63-.63,1.32c-1.88.07-3.6.16-4.59-.57-.58-.71-.45-.55-.69-2A6,6,0,0,1,133.24,65.92Zm-3-22.84c-1.67-.82-.86.14-1.34-1.94l1.3,0C130.18,41.77,130.19,42.42,130.2,43.08Zm-3.5-12.37,2,0c0,.22,0,.44,0,.66h.66l0,2-2.62-.61C126.72,32,126.71,31.37,126.7,30.71Zm4.07,77.79c1.09,1.76.09,3.49,2.71,5.19-.4,1.21,0,.59-.63,1.32,0,.21,0,.43,0,.65-3.64-1.52.29-1.9-4-1.89.21-.66.41-1.32.62-2l-2.6.7c.28-2.09.54-1.92,1.24-3.29C129.7,109.06,130,109.11,130.77,108.5Zm-3,17.07,0,1.31c-1.57-.49-1.13-.19-2-1.27Zm-3.89-68.63,2,.61c0,.22,0,.44,0,.66l-2,0C123.93,57.81,123.93,57.37,123.92,56.94ZM122.7,96.88c0,.21,0,.43,0,.65h-.65c0,.22,0,.44,0,.65-1.89-.67-.61-.26-1.35-1.93,1.22.4.6,0,1.32.63Zm-3-22.85c1.22.4.6,0,1.32.63l-1.94.69-.7-1.95C119.55,73.8,118.93,73.43,119.65,74Zm-4.26,17.09a8.65,8.65,0,0,1-1.26,2.64c-1.21-.4-.59,0-1.32-.63-.52-.62-.88-3.43-.74-4.56C113.69,89.29,113.8,90.27,115.39,91.12Zm-4-5.81c1.21.4.59,0,1.32.63,1.21.4.59,0,1.32.63l-2,.69Zm3.22-2.68c0,.22,0,.44,0,.66a3.34,3.34,0,0,0-1.28,1.33l-1.31,0c-.23-.87-.47-1.73-.7-2.6Zm-7.49-15.56,3.27-.06c0,.21,0,.43,0,.65H111c-.72.57-.56.44-2,.69.73.55.57.42,2,.62-.4,1.21,0,.59-.63,1.32-.34.49-1.09-.49-3.28-.6C107.13,68.81,107.11,67.94,107.09,67.07Zm1.43,6.52,2,0c.45,1.2.06.59.68,1.29a8.18,8.18,0,0,1-.6,2.63c-2-.29-1.67,0-2.64-1.26C107,75.51,108.16,75.23,108.52,73.59Zm.54,28.77c.16-3.57,1.38-4,2.49-6.58,2.57,2.35-.89,7.25,4.12,10.39.79,1,2-1,2.59-2,1.84.62,1.33.07,2,1.92a9.36,9.36,0,0,0,2.51-5.93l2,.61c-.44-1.19,0-.59-.67-1.29,0-.88,0-1.74,0-2.62,1.55.7,1,.93,2,1.93-.21,4-1.61,2.86-3.84,4.65,2,1.89-.8,1.61-1.26,2.64-.79,1.76.6,1.63,0,2.62-.84.49-.88.28-2-.62-2.47.41-2.63.5-3.22,2.68-5.72-1.15-.74-2.38-2.73-5.84C112.66,104.25,109.77,102.8,109.06,102.36Zm14.6,10.86c0,.22,0,.43,0,.65H123c0,.22,0,.44,0,.66-3.75.16-3.75.83-4-1.24Zm-9.56,13.91c0,.66,0,1.31,0,2-2.91-1.5-3.12.5-2-2.58Zm1.73,22.22c-1,2-2.23,1.68-3.25,1.37l-3.92.08c.27-2,.42-1.58-.07-3.27,1.82-1.08,1.84-1.9,2.55-4l3.27-.06a40.63,40.63,0,0,1,2.69,3.87,10.9,10.9,0,0,1-2.64-1.25,8.25,8.25,0,0,0-2.61.7C112.61,148.94,113.24,149.16,115.83,149.35Zm6.33-11.24,0-1.31-3.25.72c-1.32-2.69-2.77-3.81-5.33-5.14.34-2.32-.08-1.93,1.91-2.65,2.19-1.2,6.6,2.56,6.66,6.42l.65,0a5.78,5.78,0,0,1,1.92-2.65c0-.22,0-.43,0-.65h.65c1.42,2,2.91,2.71,3.38,5.82C126.41,138.79,124.45,139.47,122.16,138.11Zm7.66,24.72c-1.22-.39-.59,0-1.32-.63C129.71,162.6,129.09,162.24,129.82,162.83Zm-1,17c0,.22,0,.44,0,.66l-1.31,0c0-.43,0-.87,0-1.31C127.94,179.45,128.39,179.66,128.83,179.86Zm-7.66-24.72,1.31,0c0,.43,0,.87,0,1.31l-1.31,0C121.18,156,121.17,155.58,121.17,155.14Zm-4.24,18.4c.52-.5,1.42-.84,1.94-1.34l1.31,0c-.21.66-.42,1.32-.62,2-1.4-.21-1.23-.07-2-.62Zm1.92,32.68,2.62,0c0,.43,0,.87,0,1.3l-.65,0c0,.22,0,.43,0,.65C118.12,207.73,119.68,208,118.85,206.22ZM121.93,231l-2,0c.19-1.31.39-2.63.58-3.94l2,0c0,.22,0,.44,0,.66h.66C122.89,229.83,122.64,229.66,121.93,231Zm5-46.55a3.45,3.45,0,0,0-.59,3.28c0,.44,0,.88,0,1.31-3.5.13-3.3.16-6.54.12q-.39-3.91-.8-7.83c2.09,0,5.82.17,7.22,1.17l2.61-.05C128.18,184,128,183.45,127,184.48Zm1.38,3.9a8.77,8.77,0,0,1,2.64,1.26c0,.44,0,.87,0,1.31a8.47,8.47,0,0,0-3.28-.59C127.92,189.7,128.13,189,128.33,188.38Zm.06,3.27c.15-.91.75.25.64-.67.62.71.25.09.68,1.3C129.71,192.28,127.17,192.24,128.39,191.65Zm2.33,124.94c0-.44,0-.87,0-1.31a6.51,6.51,0,0,0,1.94-1.34l1.31,0c0,.22,0,.44,0,.65l-.66,0c-.2.66-.41,1.31-.61,2Zm7.77-4.73,1.38,3.9c-.59.73-.24.1-.63,1.32l-5.89.12a12.15,12.15,0,0,1,3.84-4.66l0-2a3.33,3.33,0,0,0-1.92,2.65,6.56,6.56,0,0,1-4-1.23c.69-1.7,1.65-1.88,2.56-3.32,4-.24,3.55-.86,7.17-1.44C140.8,311.13,139.72,309.75,138.49,311.86ZM137,194.76l-1.31,0c0-.22,0-.44,0-.66a9.32,9.32,0,0,0,2.55-3.32l3.93-.07c0,.22,0,.44,0,.66C140.27,192.29,138.11,193.14,137,194.76Zm21.3,124.58c-2.12,0-3.3.32-4.59-.56H153c.69-1.7,1.65-1.88,2.56-3.32,1.81.53,1.92,1.1,3.31,1.9C158.67,318,158.47,318.69,158.26,319.34ZM160,306.22l-1.31,0a7.47,7.47,0,0,1,1.33,1.29c-4.16,2.15-4.15,5.48-7,8.63,0,.22,0,.44,0,.66h-.66c.17-1.83.35-2.89,1.24-3.95.18-5,3.11-4.9,5.08-7.95l1.31,0Zm.55-5.24c-.64.28-2.35.19-3.25.72l-2.55,4-5.9-.54c-1.74.61-1,2.55-3.24,1.36l-1.31,0c0-.65,0-1.31,0-2,3.42-.17,13.49-4.14,14.31-4.85l2,0C160.52,300.11,160.53,300.54,160.53,301Zm-1.11-94.86c-2-.69-3.76-.38-5.89.11l-2-3.23c3.75,0,3.82.44,5.89-.11a5.1,5.1,0,0,0,2,1.92Zm-2.69-3.87c0-.88,0-1.75,0-2.62l1.31,0c-.22,1.4-.07,1.24-.62,2,0,.22,0,.44,0,.65Zm1.77-45.19-3.94-.58a8.35,8.35,0,0,1,.61-2.62,8.25,8.25,0,0,0,5.26,1.2c0,.22,0,.44,0,.66C158.89,156.27,159.32,156,158.5,157.06ZM164,313.35c0,.22,0,.44,0,.66-.38,1.29-.68-1.3-.68-1.3-.78-1.27-.21-.49,0-2l1.32.62C164.44,312.77,164.59,312.61,164,313.35Zm-3.48-151.09c.15-.92.75.25.64-.67.62.71.25.08.68,1.3C161.88,162.89,159.34,162.85,160.56,162.26Zm1.09-11.8H161c.2-.66.41-1.31.62-2l1.31.63c0,.22,0,.43,0,.65C161.75,150.23,162.35,149.84,161.65,150.46Zm1.16,26.81,0-2c2-.11,1.81-.46,2.62,0l1.3,0C165.92,176.94,165.05,177.05,162.81,177.27ZM164.65,206c.2-.87.41-1.74.61-2.63,1.36.71,1.19,1,3.29,1.25-.2.66-.41,1.32-.62,2-1.39-.22-1.23-.07-2-.62Zm3.78,97.43c0,.22,0,.44,0,.65-.38,1.3-.67-1.29-.67-1.29-.62-.71-.25-.08-.68-1.3a10.59,10.59,0,0,0,2.59-1.35C170,300.67,169.42,302.37,168.43,303.45Zm1-88.35c-2.68-.58-2.75-.76-2.67-2.57a8.83,8.83,0,0,1,2.65,1.26C169.38,214.22,169.39,214.66,169.4,215.1Zm-.08-4.58a4.2,4.2,0,0,1-2.65-1.26l2.62,0Zm-.53-28.13,2,0c0,.22,0,.44,0,.66h-.66c0,.22,0,.44,0,.65C168.31,183.32,169,184.06,168.79,182.39ZM169.85,204l1.31,0c0,.44,0,.87,0,1.31C169.36,204.89,170,205.64,169.85,204Zm2.53,100.73c.2-1.1.4-2.19.59-3.28.51.51.85,1.41,1.35,1.93,0,.44,0,.88,0,1.31Zm.89,12.42c0-1.66,0-2.44.59-3.29,0-.44,0-.87,0-1.31.55.68.83,2.56,1.37,3.25C174.38,317.43,175.35,316.62,173.27,317.11Zm1.93-106.7a8.07,8.07,0,0,1-4-2.55c-1.22-.39-.6,0-1.32-.63a16.24,16.24,0,0,0,3.24-1.36c1.41.55,1.15-.08,2,.61.21.19,1.76.58,1.33,1.29h-.65c-.22,1.4-.07,1.24-.62,2C175.19,210,175.2,210.19,175.2,210.41Zm7.87,105.86-5.24.09c.84-3,2.39-3.06,1.86-5.92,2.07.58,2.7,1.13,3.33,3.21C183.56,314.44,183.1,314.29,183.07,316.27ZM178.84,300c2.1.54,2.14,1.25,4,1.88,0,.88,0,1.75,0,2.62A5.05,5.05,0,0,1,178.84,300Zm-.23-82.45c0-.22,0-.43,0-.65h-.66c.61-1.56,1.1-1.41,1.91-2.65,1.22.39.6,0,1.32.63s.18.59.7,2C180.05,216.53,180.87,216.92,178.61,217.54Zm-.77-5.87-1.31,0c1.08-1.73,2.73-2.39,3.86-4l2,.62C180.9,209.67,179,210,177.84,211.67Zm5.1-7.29h-.65c0-.22,0-.44,0-.66l-3.27.06c.2-.66.41-1.31.61-2,1.41.56,1.15-.08,2,.61l1.31,0ZM179.46,88l-1.31,0a8.77,8.77,0,0,1,1.26-2.64c1.21.4.6,0,1.32.63C179.67,86.84,179.93,86.38,179.46,88Zm1.67-15.73s-.8.11-.69-2h.65C181.11,70.92,181.12,71.58,181.13,72.23Zm-2.22-49c.2-.65.41-1.31.62-2,1.67.82.85-.14,1.34,1.94Zm119.57,306c0,.44,0,.87,0,1.31-1.57-.49-1.13-.19-2-1.27Zm-12.43.23c0,.44,0,.88,0,1.31-2-.29-1.66-.05-2.64-1.26Zm-11.91-147c.62.7.25.08.68,1.29C273.46,183.14,274.3,183.84,274.14,182.39Zm.26,13.73c.82,1.62-.34.55,1.33,1.29l0,1.31c-2.1-.29-1.92-.54-3.3-1.25,0-.44,0-.87,0-1.31Zm-4.59-35.25-1.31,0c-1.22.59,1.32.63,1.32.63,0,.65,0,1.31,0,2-2.9-.45-5.84.31-7.87-1.16-.2-.63-.51-.24,0-.66l.63-1.32q1.63,0,3.27-.06c0-3.15.37-4.37,1.85-5.92.4-1.22,0-.6.63-1.32.6,2.63.93,3.63.76,5.87l1.94-1.34a7.4,7.4,0,0,1,.7,2.6C270.38,160.45,270.53,160.29,269.81,160.87Zm-1.64,17a19.37,19.37,0,0,1-.74-4.57,21.6,21.6,0,0,1,2,1.93c-.21,1.39-.07,1.23-.62,2,0,.22,0,.44,0,.65Zm.21,11.12v.65l-.66,0c.21-.66.42-1.32.62-2C268.92,188.82,268.85,188,268.38,189Zm-1.73-22.22c-1.67-.82-.86.15-1.34-1.94l3.29,1.25c0,.22,0,.44,0,.66C266.74,166.72,267.67,166.26,266.65,166.82Zm1.4,4.56,1.32.62c0,.22,0,.44,0,.66C267.56,172.3,268.2,173.05,268.05,171.38ZM249.14,175h-.66c0,.22,0,.44,0,.66-1.62-.56-4-1.86-5.9-.54-.84-.89.22-1.7,0-2-.64-.65-2.76-.55-3.3-1.25-.77-1-.81-5.11-.75-5.22.07-5-1.43-5.42-4.67-5.15a4.26,4.26,0,0,0-1.36-2.59c0-.22,0-.43,0-.65,1.2-.45.59-.06,1.29-.68,4.46.32,1.9,1.58,4,3.85.77.82,1.7.38,2.65,1.92l2.62,0c0,.87,0,1.74.05,2.61,1.88-.65,2-.54,4.57-.73-.22,1.39-.07,1.23-.62,2,0,.22,0,.43,0,.65,1.39-.26,1.23-.11,2-.69,1.69.71,1.51.7,2,2.58a5.08,5.08,0,0,0,1.93-2l2,0c-.77,1.76-.52,2.85-1.23,3.94a28.63,28.63,0,0,1-5.85,2.08C248.31,174.31,248.64,174.41,249.14,175ZM233.3,202.78c-2.52-.39-1.88-.72-3.31-1.9.83-1.68.86-1.29,3.25-1.37-1-.72-2.72-.65-4.59-.57l0-1.31c.92-.36,3.15-.79,3.9-1.38l2,.62c-.75,1.64.36.53-1.28,1.33.78.58,1.09.53,2.63.61.45,1.19.06.59.68,1.29C235.69,202,234.68,201.57,233.3,202.78Zm3.34,3.86c-.75,2.23-1.83,1.91-3.21,3.33-1.39-.21-1.23-.06-2-.61h-.66c0-.22,0-.44,0-.65a10,10,0,0,0,3.84-4.66C235.44,204.81,235.84,205.9,236.64,206.64Zm-1-16.34c-.64.88-1.27,1.77-1.91,2.66-3.84-.39-1.08-.73-3.32-2.56-.81-.86-1,.42-2,0l-1.31,0c.21-1.39.06-1.24.61-2,0-.22,0-.44,0-.65l.66,0c0,.22,0,.44,0,.66l2,0c-.5-.59-.82-.7-1.33-1.29a21.89,21.89,0,0,0,5.16-4l2,1.27a6.26,6.26,0,0,1-2.55,3.32C234.17,189.92,234.05,189.47,235.68,190.3Zm-12.15,15.28c.55-1.47.55-1,1.28-2a12.68,12.68,0,0,0,3.29,1.25c-.43,2.08.41,1.12-1.27,2,0,.22,0,.43,0,.65C225,206.78,225.51,206.19,223.53,205.58Zm1.45,7.17a7.91,7.91,0,0,0,2.64,1.26c-.52.51-1.42.84-1.94,1.35l-1.31,0A8.15,8.15,0,0,1,225,212.75ZM217,207.66c0-.43,0-.87,0-1.3,1.31-1.23,1.13-2,3.22-2.68.7-.62.08-.25,1.29-.68,0,.22,0,.44,0,.65h.66c-.26,2.78-.81,2.16-1.22,4.61Zm3.42,7.79c0,.22,0,.44,0,.66-2.22-.42-1.75-.32-2.65-1.92A9.14,9.14,0,0,1,220.45,215.45Zm.28-19.63c0,.22,0,.43,0,.65l-1.31,0c.1-2.49-.33-2.22-.75-5.23l3.29,1.25c-.52,1.68-.64.4-1.28,1.33C220.37,194.33,221.5,194.82,220.73,195.82Zm-2.09-7.16c-1.67-.82-.86.14-1.35-1.94.61.48.73.8,1.34,1.28C218.63,188.22,218.63,188.44,218.64,188.66ZM223,213.44c0,.44,0,.87,0,1.31l-1.31,0a7.4,7.4,0,0,1-.7-2.6Zm-1.75-23.52c-.71-1.17-.18-1.18-.06-3.27a8.42,8.42,0,0,0,2.6-.71c0-.21,0-.43,0-.65h.65c-1.28-.74-.75-.16-2.61.05.17-2.36-.62-2,1.27-2,.62-.84.6-1.63.59-3.28,1.63.55,1,.72,2.64,1.26,1.41.61,2.8-1.22,3.88-2.7a6.59,6.59,0,0,1,2.66,2.57,12.56,12.56,0,0,0-3.87,2.7c-2.09-.3-1.92-.54-3.3-1.25,0,.21,0,.43,0,.65.08.64-.11.81,2,1.27a10.42,10.42,0,0,1-3.17,5.3c.82,1.61-.34.54,1.33,1.28-.4,1.22,0,.59-.63,1.32,0,.22,0,.44,0,.66-.87-.51-1.71.51-1.33-1.29h.66C223.65,191,222.17,190.76,221.28,189.92Zm5.58-16.47c0-.21,0-.43,0-.65a7.4,7.4,0,0,1,2.6-.7c0,.65,0,1.31,0,2-1.4-.22-1.23-.06-2-.62Zm4.35-12.51c0,.44,0,.87,0,1.31l-1.3,0,0-1.3Zm-1.49-44.47c1.65.32.35.25,2,0l0,2A16,16,0,0,1,229.72,116.47Zm-2.37,83.15c0,.65,0,1.31,0,2h-.66l-.69-2Zm8.07-23.05c0,.21,0,.43,0,.65l-2,0,0-1.31Zm-2-2.58,1.3,0C234.26,175.18,234.46,174.78,233.42,174Zm.07-66.09-1.31,0c0-.66,0-1.31,0-2,2.07.17,2.14.64,3.27,0l2.62-.05c-.4,1.21,0,.59-.63,1.32C236.28,108.22,234.75,108.74,233.49,107.9Zm2.16,10.43,0,2-.65,0-.69-2Zm18.54,46.76-.66,0c.21-.67.41-1.32.62-2l1.31,0C254.92,164.58,254.92,164.05,254.19,165.09Zm1.32.63,2,0c0,.22,0,.44,0,.66h.66c0,.22,0,.43,0,.65l-2.62.05C255.53,166.59,255.52,166.16,255.51,165.72Zm.78,6.53,3.27-.06c.8,1.82,1.09,2.86,2.69,3.87,0,.22,0,.44,0,.66h-.65c-1,1.54-1.7-1.48-2.66-1.91-1.75-.79-.68,1-2,0C255.41,173.53,256,174.09,256.29,172.25Zm4.83,13.65,2,0c0,.21,0,.43,0,.65h-.65c0,.22,0,.44,0,.66l-1.31,0C261.14,186.77,261.13,186.34,261.12,185.9Zm7-78.65c-.72,1.71-1.47,1.48-2.57,2.66h-.65c.19-1.09.39-2.18.59-3.28l2,0c0,.21,0,.43,0,.65Zm-.27,20.94,1.31,0c-.53,1.8-1.1,1.92-1.9,3.31h-.65C266.94,129.39,267.19,129.57,267.89,128.19Zm-1.65,16.39a12.9,12.9,0,0,0-1.25,3.3l-2,0c.11-3.26.81-3.09-1.4-4.55a18.09,18.09,0,0,1,4.52-3.36c.71-.62.09-.24,1.3-.68a3.37,3.37,0,0,0,1.33,1.29l0,1.31a12.24,12.24,0,0,0-4.58.08C264.4,145.27,263.79,144.65,266.24,144.58Zm11.53-13.3-1.31,0c0-.44,0-.88,0-1.31l1.31,0C277.75,130.41,277.76,130.84,277.77,131.28Zm-.26-13.74-1.31,0-.69-2c1.22.41.6,0,1.33.64l.65,0C277.5,116.67,277.51,117.11,277.51,117.54Zm1.24-4c.2-.65.41-1.31.61-2,.58.71.45.55.69,1.95Zm-.5-26.82c0-.21,0-.43,0-.65h.66a7.4,7.4,0,0,1,.7,2.61c-.65,0-1.31,0-2,0C277.84,87.35,277.69,87.51,278.25,86.77Zm-.6,3.29,2,0A6.36,6.36,0,0,0,283,93.89c0,.43,0,.87,0,1.3h-.65c0-.21,0-.43,0-.65-3.49-.33-2.61-1.66-4.64-3.18Zm-3.16,6,2,0,0-2c1,1.11,1.12,3.36,2.05,4.54,0,.44,0,.87,0,1.31-1.39-.22-1.24-.07-2-.62l-2-.62C274.53,97.75,274.51,96.88,274.49,96Zm-1.62,53,2,0c0,.22,0,.44,0,.65l-.65,0c0,.22,0,.44,0,.65l-1.31,0C272.88,149.91,272.87,149.48,272.87,149Zm-1.53-11.75-2.62.05c0-1.66,0-2.43.59-3.29.63-.19.24-.51.66,0l1.31,0Q271.3,135.66,271.34,137.29Zm-1.23-30.73c0,.43,0,.87,0,1.31l-1.31,0c0-.44,0-.87,0-1.31Zm-6.23-18.21c2.76.42,2.77,1.4,4.62,2.53-.64,2-1.08,2.17-3.21,2.68,0,2.57-.51.74.7,2.6h-.66c0,.23,0,.44,0,.66-1-.73-.49-.74-2-1.27,1.25-2,2.35-1.94,2.52-5.28-2.06.51-1.13-.36-1.94,1.34l-1.31,0C263,89.45,263.3,90.13,263.88,88.35Zm-.53,41.89c2.27,1.07.63,1.68,2,2.58.66.42,2.13.39,2.63.61l0,1.31c-3.27-.33-3.08-1.47-4.59-.58-1.4-.21-1.24-.06-2-.61,1-.86-.28,0,0-1.31h.65C262.62,130.75,262.62,131.28,263.35,130.24Zm-4.47-29.36c1.56.61,1.41,1.1,2.65,1.91,0,.22,0,.43,0,.65-2.28-.11-2.26,0-3.29-1.24h-.66C258.07,101.6,258.4,101.49,258.88,100.88Zm-2.29-17.63c-.22,1.4-.07,1.24-.62,2,0,.22,0,.43,0,.65h-.65c-.45-1.19-.06-.59-.68-1.29C255.47,82.93,254.5,83.73,256.59,83.25Zm-1.46,62.19c.49-1.78.24,0,1.28-1.33,2.47.15,2.46.47,3.95,1.24a25.74,25.74,0,0,1-3.89,2,13.13,13.13,0,0,0,.08,3.93l-2,0c0-3,.47-1.43-.72-3.26a8.08,8.08,0,0,1,2.59-1.35A3.37,3.37,0,0,0,255.13,145.44Zm-2.39,12.48c.22,0,1.91,2,2,1.93s.9-1.59,1.28-2h.65c.24,1.3.49,2.61.73,3.91-2.89-.4-3.6-2.77-5.91-1.2l-2,0c0-.43,0-.87,0-1.31Zm-3.37-40.51c.44.21.88.43,1.32.63,0,.66,0,1.31,0,2-1.2.45-.6.06-1.3.69h-.65C249,119.6,249.18,118.51,249.37,117.41Zm-2,34.72c0,.66,0,1.31,0,2h.66c0-.22,0-.43,0-.65l1.31,0c-.21,1.39-.07,1.23-.62,2,.12,4.14-.49,5-1.83,7.23l-2,0c-.15-1.54-.09-1.84-.7-2.61.47-2.31-.38-1.27,1.94-1.34-1-2.68-.87-2.65-.78-6.53Zm-2.8-9.76,2,.62c-.49,3-1.85,3.12-2.51,5.93a8,8,0,0,1-2.63-.61C241.9,144.76,243.55,144.93,244.6,142.37Zm-.52,7.2c0,.22,0,.44,0,.66h.65l0,1.31c-2-.46-2.31-1-4.61-1.23,0-.43,0-.87,0-1.31A10.18,10.18,0,0,0,244.08,149.57Zm-4-38.53a6.23,6.23,0,0,1-1.27,2c-.7.62-.08.25-1.3.68-1.28-1.94-.92-.33,0-2.62Zm-1.44-7.17c-1,.82-.46.35-1.32-.63.33.13,2,.62,2,.62ZM227.19,15.75c.21-.66.41-1.32.62-2,1.84.94.71-.11.69,2,3.72-1.05,1.95.28,4,1.89.17.15,2.15-1.4,3.26-.71a5.91,5.91,0,0,0,1.34,1.94l0,1.31c-3.71-.93-4.32-3.16-7.87-.51C228.44,17.24,230.57,17.06,227.19,15.75Zm11.07,67.19A8.77,8.77,0,0,1,237,85.58l-1.31,0A8.83,8.83,0,0,1,237,83Zm-7.33-7.06c0,.43,0,.87,0,1.31h-.65c0-.22,0-.44,0-.65-1.15-.85-1.44-1.84-2-3.24C230,74,229.75,74.79,230.93,75.88Zm-2.27-16.32-.65,0c0,.21,0,.43,0,.65l-1.31,0c0-.44,0-.88,0-1.31l2,0C228.65,59.13,228.66,59.34,228.66,59.56ZM226,57h.65l0,1.31H226c0-.21,0-.43,0-.65-1.09-.82-.82-.37-1.35-1.94C226.31,56.47,225.2,55.36,226,57Zm-.66,34.7c.57.71.44.55.68,2a7.31,7.31,0,0,1,2.61-.7,11.45,11.45,0,0,0-1.16,7.87,6.81,6.81,0,0,0,3.21-3.34c3.21.34,3.54,1.83,5.23-.09l2,0c0,.22,0,.44,0,.66-1.54.7-4.39,1.26-5.85,2.07-2.56,1.4-1.79,3.24-6.48,3.39-.09-3.68-.88-6.65-2.78-8.45C223.42,92.91,224.15,93.05,225.34,91.69Zm-1.81,78.56,2,.61c-.82,1.67-.31,1.12-2.59,1.36.78.57,1.09.53,2.63.6,0,.88,0,1.75.05,2.62-1.63,1-4.12,2.41-2.53,4.63-.7,1.52-1.13,1.37-2.58,2,0-.22,0-.44,0-.65-.42-.34.91-5.25-.79-7.19.59-.53,1.19-.52,3.26-.71-.74-.55-.57-.43-2-.62.2-.88.41-1.75.61-2.63C223.44,170.15,222.5,169.72,223.53,170.25Zm-1.36-2.6c-.39,1.22,0,.6-.63,1.32s-.08.25-1.29.68c-.51-.59-.83-.69-1.34-1.28-.78-1.27-.2-.49,0-2C221.61,167.45,219.49,167.74,222.17,167.65Zm-8.39-99.3-.06-2.62c2.94,2.49-1,.84.73,3.91l3.32,2.56c-2.6,2-3.27-.92-5.87.76l-1.31,0c-.13,2.85-.75,3.45.75,5.23-.21,1.39-.06,1.23-.61,2-.8.62-3.1.78-3.91,1.39l-1.3,0C206.78,76.74,210.08,70.92,213.78,68.35Zm.05,143.3c0,.22,0,.44,0,.65l-2.61,0,0-1.31,2,0c0,.21,0,.43,0,.65Zm-.67-1.29c-1.26-1.82-1.43-.76-1.36-2.6,1.39.22,1.23.06,2,.62l2,.62c0,.43,0,.87,0,1.3C214.16,209.9,214.74,209.91,213.16,210.36Zm2,3.88,1.32.63c0,.22,0,.44,0,.66-1.2.44-.59.05-1.29.67l-.66,0C214.78,215.56,215,214.9,215.19,214.24Zm0-37.3c-.83-1.58-1.81-2.47-2.69-3.87l-2,0c.21-1.39.06-1.23.61-2,0-.22,0-.44,0-.65h.66a11.65,11.65,0,0,0,4,4.5l0,2ZM211,302.66l0-2,1.31,0c.45,1.2.06.6.68,1.3,0,.65,0,1.31,0,2l-.66,0c0-.23,0-.44,0-.66ZM205.76,60a49.76,49.76,0,0,0,5.3,3.17,8.83,8.83,0,0,1-1.26,2.65l-1.31,0-3.35-4.52c-.54-.59-.52-1.19-.72-3.26C206.47,59.22,206.16,57.92,205.76,60Zm.93,154.41v.65l-.66,0c0,.21,0,.43,0,.65-1.67-.82-.86.15-1.35-1.94,1.22.4.6,0,1.32.63Zm1.64,88.31c-.39,1.21,0,.59-.62,1.32,0,.22,0,.44,0,.65l-.66,0-.69-1.95ZM198.35,13a14.12,14.12,0,0,1,3.31,2.55c-.31,2.27-.74,2-1.23,3.95l-2,0c.28-1.43,1.18-2.15,1.25-3.29C198.92,15,198.58,15.43,198.35,13Zm1,17.64c0,.88,0,1.75,0,2.62h-.66a7.62,7.62,0,0,1-.7-2.6Zm-.62,36.66c1.55.61,1.41,1.11,2.65,1.91-.56,3.17-2.33,3-3.16,6l-1.31,0C197.16,71.1,198,70.8,198.71,67.32ZM200,169.38c.63.7.25.08.68,1.29C199.28,170.13,200.12,170.83,200,169.38Zm-1.7-91.58-.69-2,1.31,0,0,2Zm0,107.31c0,.44,0,.87,0,1.31-1.57-.49-1.13-.19-2-1.27Zm1.27,33.35,0,1.31c-2.23-.78-1.41-.24-1.35-1.94ZM185,70.85h-.65c0,.22,0,.43,0,.65l-1.31,0c0-.44,0-.87,0-1.31l2,0C185,70.41,185,70.63,185,70.85ZM185,68.23l1.32.63,0,1.31h-.66Zm5.82,101.32c0,.21,0,.43,0,.65h.66c-.21.44-.42.88-.64,1.32-2.32-.34-1.93.08-2.65-1.91Zm11.77,139.81c-1.16-.66-1.92.28-3.29-.59-1.53.66-1.36,1.15-2.57,2,0,3.4,0,4.6,2.07,5.85l.66.64c.79-.95.63-2.24,1.92-2.65l.65,0c0,.22,0,.44,0,.66,2.07.67,1,.29,2.6-.71.42,1.53-.45,3.77,1.4,5.21,1.45,1.49.41-1.24,2-.69.94.34.66,1.09,2.64,1.26-.24,1.83-.69,1.41,0,2.62l0,1.31c-5.89-1.77-9.78-6.83-17.15-7.53-.13-3.64-3.44-8.32-1.55-12.41l1.31,0c.7-1.42.57-5.86.55-5.9,0-.66,0-1.31,0-2l5.27,1.87c-.76,1.64.35.53-1.28,1.33l.12,6.54c4.55-1,4,.15,8.53,1.15-.76,1.64.35.54-1.29,1.33,1.67,1.29,2.83.77,4.59.57a7.44,7.44,0,0,1,.71,2.61c-2.7,0-4.51.18-5.87,1.42-1.7-.71-1-.91-.69-1.95C203.4,309.24,204.27,310.17,202.57,309.36Zm5.57-122.47c-1.82-.35-1.18.39-1.34-1.28l1.31,0Zm8.51,140.53-2.63-.61c0-.22,0-.43,0-.65a12,12,0,0,0,3.84-4.65C219.94,324.19,217.09,322.89,216.65,327.42Zm2.44-9.21c-2.38.43-5.42-.46-6.54.12l-1.31,0c0-.22,0-.44,0-.65l.66,0c.26-5.54,1-1,3.18-4.64,1.85,1.23,2.17,3.27,4,4.51C219.09,317.78,219.09,318,219.09,318.21Zm4.57-.74c0,.22,0,.44,0,.65l-2.61.05,0-1.3,2,0c0,.22,0,.44,0,.65Zm.77,6.53-2.61.05c0-.44,0-.87,0-1.31,1.53-.15,1.83-.09,2.6-.7h.66Zm3.77-8.58c-1.66,0-2.43,0-3.28-.59l-1.31,0c.2-.87.41-1.75.61-2.62-.68-1.29-5.11-4-6.63-4.46.21-1.4.06-1.24.62-2,.14-2.46.46-2.45,1.23-4,1.79.66,2.85,1.74,4.63,2.54-.43,2.08.4,1.11-1.27,2a6.06,6.06,0,0,0,4.61,1.88c-.77,2.8-2.11,3.85.77,5.88C228.19,314.55,228.19,315,228.2,315.42Zm1.18-7.22-1.32-.62c.2-.45.41-.89.62-1.32C229.34,307,230.68,307,229.38,308.2Zm-2.45-96.14c.2-.66.41-1.32.62-2l3.93.59c-.68.54-2.56.83-3.25,1.36Zm8,113.71c-.4,1.21,0,.59-.63,1.32-.86-1,0,.28-1.31,0,0-.21,0-.43,0-.65l-1.31,0c-.52-3.38-.34-3.84,1.19-6.56l2,.61c.09,3.63.63,3.28-1.9,3.31A5.22,5.22,0,0,0,234.94,325.77Zm2.68,3.22c1.56.61,1.41,1.1,2.65,1.91,0,.22,0,.44,0,.66C237.3,331.21,237.49,330.79,237.62,329Zm3.36,5.17-2,0c.21-.66.41-1.32.62-2l1.32.63C241,333.29,241,333.73,241,334.16Zm.38-15.06c-1.74-.46-1.54-.8-3.3-1.25,0-.43,0-.87,0-1.3,1.74.47,1.54.81,3.3,1.24C241.34,318.23,241.35,318.67,241.36,319.1Zm2.57-2.66c0-.87,0-1.75-.05-2.62l1.31,0c.44,1.2.05.59.67,1.29,0,.66,0,1.31,0,2l-1.31,0c0-.22,0-.43,0-.65Zm.92,14.38a8.18,8.18,0,0,1,.6-2.63l2.63.61a21,21,0,0,1-1.26,2.63C246,332.46,246,331.34,244.85,330.82Zm1.75-11.16c.21-.65.42-1.32.62-2a41.57,41.57,0,0,0,4,2.54c0,.22,0,.44,0,.65a6.92,6.92,0,0,1-3.3-1.24Zm.33,17.66,2,0,.69,1.94A5.62,5.62,0,0,1,246.93,337.32Zm7.9,2.48,0,1.3c-2.47-.15-2.46-.47-4-1.23-.24-1.31-.49-2.61-.73-3.92a8,8,0,0,1,4,2.55h.66q-.31.64-.63,1.32Zm.47-9.83h-.65c0,.22,0,.44,0,.65-1.67-.82-.86.15-1.35-1.93,1.22.4.6,0,1.33.63l.65,0C255.29,329.53,255.3,329.75,255.3,330Zm2.84,11.73c1.21.39.59,0,1.32.62C258.24,341.93,258.86,342.29,258.14,341.7Zm4.56-.75-.65,0c-.86-.69-.78.23-2-.62h-.66c0-.22,0-.43,0-.65a8.62,8.62,0,0,1,3.26-.72Zm4.23,16.28c0,.22,0,.44,0,.66-.58-.72-.45-.56-.69-1.95l1.31,0C267.17,357.13,267.53,356.51,266.93,357.23Zm2.24-20.32,2.62-.05c0,.21,0,.44,0,.65.76,1.07.33,1.3.7,2.61A7.29,7.29,0,0,1,269.17,336.91Zm2.37-13.79,1.31.63,0,1.31C271.21,324.23,272,325.2,271.54,323.12Zm.83,9.8,5.91,1.2c-.2.66-.41,1.32-.62,2C274.75,335.8,273.6,334.88,272.37,332.92Zm1.48,9.13c-.23-.64-.46-1.3-.69-1.95l2.62,0c0,.43,0,.87,0,1.31Zm6.23,18.21c-1.85-.63-1.36-1.05-3.95-1.24,0-.43,0-.87,0-1.3l3.27-.06c.26,1.38.11,1.23.69,1.94C280.07,359.82,280.07,360.05,280.08,360.26Zm2,1.93-1.31,0a9.39,9.39,0,0,1,.59-3.28l2,1.27Zm.56-5.25c0,.22,0,.44,0,.65l-.66,0c-.95.62-2.64-.76-4.6-1.23,0-.43,0-.87,0-1.3C279.89,355.37,280.77,356.12,282.64,356.94Zm-4.72-7.11c.21-.66.41-1.32.62-2,.58.71.44.55.69,1.94Zm.26-20.94h-.65c0-.22,0-.44,0-.66-1.55-.63-1.26-.59-2-1.92h-.66c.49-.61.81-.72,1.29-1.33l2,.62Zm-.73-4.57-1.31,0c.2-.65.41-1.31.61-2C277.33,323.08,277.2,322.92,277.45,324.32ZM266.86,318a12.69,12.69,0,0,1,4,2.54l1.31,0a38.24,38.24,0,0,1-2.69-3.87,3.5,3.5,0,0,0,1.29-1.33c3.33.06,3.33.72,5.26,1.86l.06,3.27-1.32-.63c0,.87,0,1.75.05,2.62-3.07.12-5.62.17-7.22-1.18l-1.31,0Zm-1.38,31.44c1.22.4.6,0,1.32.63C265.59,349.64,266.21,350,265.48,349.41Zm-4.62-37.21c0,.22,0,.43,0,.65h.66c0,.43,0,.87,0,1.31,0,0-3.51-1-4.59-.57-.48.19-.4,1.1-1.29,1.33l-1.3,0c-.4,1.22,0,.6-.63,1.33,1.63,1.36,3.88.71,5.92,1.85l.69,1.95c.16.1,2.56-1.21,3.25-1.37,0,.22,0,.43,0,.65h.65a10.23,10.23,0,0,1-2.58,2c.8,1.83,2.23,2.45,4,3.2l0,1.31c-1.4-.39-1.38-.81-2.62,0l-1.31,0c0-.87,0-1.74,0-2.62l-2,0c.09-1.54,0-1.84.6-2.63,0-.21,0-.43,0-.65-1.38.26-1.23.11-2,.69-3.59-.25-4.82-1.79-7.25-3.14.19-1.31.38-2.62.58-3.93-4.66-.63-8.49-2.87-13.8-3a14.52,14.52,0,0,0,2,1.93c0,.22,0,.43,0,.65-1.22-.4-.59,0-1.32-.63l-3.27.07c-.3-1.82-.74-1.39,0-2.63-.53-.48-1.45-.79-2-1.26h-.65a8.77,8.77,0,0,1,1.26-2.64C244.28,306.28,251.15,311.42,260.86,312.2ZM236.73,176.54c.22-.44.42-.88.63-1.32a4.15,4.15,0,0,1,2.64,1.26h.66c0,.43,0,.87,0,1.31C239.63,177.24,237.76,177.14,236.73,176.54Zm3,18.27c.09-1.54,0-1.84.61-2.63,0-.22,0-.44,0-.66h.65a7.52,7.52,0,0,1,.7,2.61l3.92-.73c0,.22,0,.43,0,.65h.65c-1.07,2.18-1,.65-2.58,2A6.56,6.56,0,0,1,239.69,194.81Zm4.83,13-2.63-.61,1.26-2.64c.5.51.84,1.42,1.34,1.94Zm5.06-9.26c-2.29-.07-1.21-.88-2.61.7-2.13-.76-2.75-1.9-2.68-3.22,1.77,0,3-.09,3.94.58l1.31,0C249.55,197.24,249.57,197.9,249.58,198.55Zm.64-.67c0-.65,0-1.3,0-2l1.31,0c.45,1.2.06.59.68,1.29C251.45,197.77,251.62,197.64,250.22,197.88Zm1.15-8.53-2,0a7.4,7.4,0,0,0,.6-2.63l2,.62C251.78,188,251.57,188.69,251.37,189.35Zm5,22.82-2,0c0-2.12.13-4.74-.76-5.87.21-1.4.06-1.24.61-2,.71-.62.09-.25,1.3-.68A19,19,0,0,1,256.38,212.17Zm5.15-4c0,.22,0,.44,0,.65l-.66,0a7.4,7.4,0,0,1-.7-2.6l2,0C261.94,207.56,262.09,207.4,261.53,208.14Zm-2.7-4.53c-.22-.43-.45-.86-.68-1.29-1.22-1,1.31-2.49,1.89-4-1.6-1.49-1.32-2.54-4-3.19l0-1.31a58.92,58.92,0,0,1,5.92,1.2,33,33,0,0,0,2.69,3.87C263.86,201.3,261,202.63,258.83,203.61Zm5.68-11.23c-1.57-.49-1.13-.19-2-1.27l2,0C264.5,191.51,264.51,192,264.51,192.38Zm1.22-4.6c.32-1.46.68-.75,0-2,0-.22,0-.44,0-.66l1.31,0a7.62,7.62,0,0,1,.7,2.6Zm7.12,30.62c-2-.76-2.38-1.92-4.63-2.53,0-.44,0-.87,0-1.31a15.65,15.65,0,0,1,4.62,1.88Zm3.74-9.88c-2.28-.31-2.3-.42-3.31-1.91l-1.3,0c1.75-1.49,2.5-.56,3.21-3.33,1.39.21,1.23.06,2,.61a21.6,21.6,0,0,1,2,1.93C277.67,207.23,277.77,205.72,276.59,208.52Zm.84,9.79,0-1.3,1.31,0,0,1.31ZM280.34,234,279,234c0-.44,0-.87,0-1.31l1.3,0Zm.37-50.39-.66,0c0-.23,0-.44,0-.66-3.4-.36-2.24-1.49-4.63-2.53l0-2c2.45,1.31,1.1,2.27,5.29,3.17C280.68,182.27,280.69,182.92,280.71,183.57Zm-1.42-5.86c-1.18.68-1.49.43-2.63-.6H276c0-.22,0-.44,0-.66h.65c.66-.65,1.35-.12,2.59-1.36l1.31,0C280.38,177.33,281,176.84,279.29,177.71Zm10,9a3.75,3.75,0,0,1-.06-3.27c2,1.61.89,2.61,4,4.51,0,4-.7,2.74-1.22,4.6-2.7-1.19-1.11-2.85-2.69-3.87-.91-.59-1.94,0-2.63-.61H286C286.86,186.38,286.89,186.77,289.27,186.68Zm-5.19,2.07.65,0,0,1.31-1.31,0c-.24-.88-.47-1.74-.71-2.61C284.39,188.22,283.27,187.11,284.08,188.75Zm.8,7.83-1.31,0-.09-4.58c1.64.75.53-.35,1.34,1.28C285.52,194.48,285,194.49,284.88,196.58ZM282,215a6.36,6.36,0,0,0,1.93-1.35l2,1.28,0,1.3c-1.88-.06-1-.52-2,0l-2,0C282,215.83,282,215.4,282,215ZM285,240.42c-1.55-.63-1.25-.59-2-1.93,1.21.4.6,0,1.32.63H285C285,239.55,285,240,285,240.42Zm2,2.58-.65,0-.69-2,1.32.63C287,242.13,287,242.57,287.05,243Zm4.25-17.75-3.92.08c.49-2,.94-2,1.9-3.31l1.31,0c.15,1.53.09,1.83.7,2.6C291.29,224.82,291.3,225,291.3,225.25Zm-.11-5.88-1.31,0c.21-1.39.07-1.23.62-2,.51-.51,1.42-.85,1.94-1.35a6.33,6.33,0,0,1,1.34,1.94A10.61,10.61,0,0,0,291.19,219.37Zm6.89-16.49.09,4.58c-2-.44-8-1.67-9.22-3.1l-1.31,0c1.15,2,1.55,4.21,2.71,5.19,0,.65,0,1.31,0,2-2-1.19-3.64-3-6-3.81.39-2.52.72-1.88,1.9-3.31,1-.82-.13-.8-.69-1.95,1.44-.69,1.88-.46,2.58-2,.95-1.8-1-2.94-2.05-4.53l.66,0c0-.21,0-.43,0-.65h.66a10.92,10.92,0,0,0,2,3.23,9.05,9.05,0,0,0,1.23-4.6l1.3,0s1.39,5.29,2.07,5.85c.35.28,4.05,1.57,4.62,1.88C298.31,202.77,298.68,202.15,298.08,202.88Zm3.24-2c0,.22,0,.44,0,.66-1.68-.82-.87.14-1.35-1.94,1.65.33.34.25,2,0C301.55,200.75,301.91,200.13,301.32,200.85Z"/><path class="cls-2" d="M271.2,450.45l-.89-1.45-1.9-.58.82-2.43-2.06,1.32-1.31-1.16h-.7a5.12,5.12,0,0,0,2.11-1v.33a20.2,20.2,0,0,0-3.78,1.7l-.92-2.09-1.68,2.46a3.74,3.74,0,0,1-.51-2.89,5.17,5.17,0,0,0-1.22,2.16l-.17-.16a16.91,16.91,0,0,0,.3-2c-.09.09-.12,0-.21.08-.94.48-1.85,1.41-2.74,1.41h-.16l-.1,0v0a11.78,11.78,0,0,1-.59-3.25c.39-.29.81-.58,1.19-.88l-1.19.59a6.05,6.05,0,0,1,1.46-4,8.23,8.23,0,0,0-3.41,5l-.35.18a3.25,3.25,0,0,0-.18-.43,2.75,2.75,0,0,0-1.39-1.29,1.65,1.65,0,0,1,.66,1.29,3.91,3.91,0,0,1-.11.95l-1.08.56c-.67.36-1.33.74-2,1.12h0l-.28-.16,0-.07a5.75,5.75,0,0,1,1.3-1c-.34,0-.69.08-1,.14a5.76,5.76,0,0,0,.15-.81c-.47.35-1,.68-1.51,1a1.66,1.66,0,0,1-.53-1,1.49,1.49,0,0,0-.32,1.39.71.71,0,0,0-.16.07l-.18,0-1.11-.62a21.88,21.88,0,0,0,1.4-2.1c-.09.05-.17.05-.26.11l.42-.42-2.46,1.4,1-.81,1.73-.71c-1.55.3-3.11.59-4.65.91-.11-.16-.2-.33-.32-.48,0,.17.06.35.09.52l-1.43.3c-.26-.32-.53-.65-.81-1a42.4,42.4,0,0,1,4.71-1.64,50.84,50.84,0,0,0-5.41.92,10.74,10.74,0,0,0-2.57-1.85,6.66,6.66,0,0,1,1.63,2.07c-1.3.32-2.57.66-3.78,1a5.22,5.22,0,0,0,.36-1.45c-.82.63-1.87,1.18-2.87,1.83l-.42-.31c-.27-.19-.56-.37-.84-.55a11.75,11.75,0,0,0,1.56-2.39l1.41-.58-2.72.71a1.76,1.76,0,0,0,.43-.35,5.87,5.87,0,0,1-1.56.41,14.85,14.85,0,0,0-2.27.42l-.16.05c-.75-.32-1.52-.63-2.3-.91l-.81-.29c1.21-1,2.37-2,3.42-3.11-1.34.89-1.4,1.74-2.83,2.58l1.34,0v0l-1.62.15-2.45-.61c-2.44-.83-5.25-1.65-7.65-2.56,1.81.95,3.56,1.85,5.45,2.74l-.73.78a4,4,0,0,0-1.16.83,4.84,4.84,0,0,0-.78,1.12c-.05.09-.09.19-.14.29-.27.18-.55.36-.79.55l-.09.06c-.09-.27-.19-.54-.27-.81s-.11-.51-.15-.77a1.48,1.48,0,0,1,0-.83,7.59,7.59,0,0,0-1.3,1.46c-.21.28-.38.57-.56.86a13.87,13.87,0,0,1-1.74-1.56,12.68,12.68,0,0,1,1.19-1.08,10,10,0,0,1,2.48-1.51,24.06,24.06,0,0,0-4.76,1.48,12,12,0,0,0-1.51-1.29,6.81,6.81,0,0,1,.68,1.31l-.19.43-.78.36-.53.29-.26-.18c-.7-.49-1.39-1-2-1.46a1.09,1.09,0,0,1,.05-.17l-.11.12a16.16,16.16,0,0,1-1.67-1.46c-.24-.27-.6-.52-.85-.79a4.78,4.78,0,0,1-.62-.84c-.35-.57-.61-1.14-1-1.69.12.57.13,1.13.23,1.74a3.3,3.3,0,0,0,.3.94,3.07,3.07,0,0,0,.29.48c.08.1.07.09.09.14l.12.23a13.62,13.62,0,0,0,2,2.73,8.48,8.48,0,0,0-.43.85l-.94-.33a15.59,15.59,0,0,1-2.71-1.36,10.28,10.28,0,0,0,1.45-1.41c-.66.32-1.38.6-2.13.88a3.68,3.68,0,0,1-1-1.2,2.31,2.31,0,0,0,.1,1.53l-.76.28a17.25,17.25,0,0,0-2,.87,1.43,1.43,0,0,0-.21.12l-.89-.38-.44-.21-.27-.13c1.33-1.32,2.74-2.63,4.13-3.94-1.73,1.05-3.45,2.09-5.13,3.15l-.19-.51.9-.59-1,.36-.22-.58-.16.72-1.05.39-.68-.25a17.9,17.9,0,0,0-3.5-.85l-.51-.31.17.27-.69-.06c.27.06.52.13.78.21.43.73.9,1.46,1.38,2.19l-.2.1-1.35-.82c.19.4.38.8.55,1.2a11.44,11.44,0,0,0-1.09.62l-.62-.92-.13-.17a6.42,6.42,0,0,1,.39-.57l-.55.34c-.18-.26-.35-.52-.56-.79l-.25-.31a3.81,3.81,0,0,0-.41-.29l-.76-.48a20.16,20.16,0,0,1-2.77-2.11,10.66,10.66,0,0,0,1.43,2.43l.46.58c.17.19.08.16.14.4a6.84,6.84,0,0,1,.08.9l-1,.52c.15.33.55.66.6,1,0,.13.34.51.37.65a.48.48,0,0,0-.07.22l-1.4.09a2.74,2.74,0,0,1-.07-1.7l-1,.52-1.69-2.33-.57,2.17a14.81,14.81,0,0,0-1.46-2.82,16.57,16.57,0,0,1-1.21,3.24l-.16.32-1.31-.59c-.13-.16-.26-.3-.38-.46v-.38l.82-.95c-.22,0-.46.06-.71.08,0-.27,0-.82.09-1.1-.3.27-.56.56-.84.56h-.26c-.14,0-.28,2.92-.41,2.69,0,.22,0,4,0,4h-.09l-.36-3.42-.12-1.18c-.22,0-.44-.78-.65-.8a23.15,23.15,0,0,1-2.47-.74l-.3-.73-.21.33c-.22-.06-.44-.16-.67-.23a3.48,3.48,0,0,0,.45.58c-.24.49-.48,1-.74,1.43-.73-.08-1.46-.21-2.18-.36-.32-.47-.65-.95-1-1.41-.06.37-.14.75-.22,1.12a13.53,13.53,0,0,1-1.7-.56,5.48,5.48,0,0,1,.77-.56,8.38,8.38,0,0,0-1.08.43,6.31,6.31,0,0,1-2.53-1.8,3.25,3.25,0,0,0,1.22,2.54,12,12,0,0,0-1.35,1l-.34.32-1.42.44-1.82-1.14.35,1.33-1.27.06-.51-.16c-.3-.21-.6-.42-.89-.64,0,.1,0,.21-.06.31l-.9-.32c1.15-.94,2.35-1.88,3.43-2.83-1.51.8-3.1,1.57-4.67,2.36a28,28,0,0,1-7.06-3.86,15.92,15.92,0,0,0,3.34,3l-.75.4-.43-.14.34.19-2.49,1.38c-1.07-.6-2.12-1.23-3.12-1.89a20.93,20.93,0,0,0,1.52,2.7l-2.22.32-.21.09c.05-.07.08-.14.13-.21a5.76,5.76,0,0,0-.73.48l-.52.22c-.12-.61-.22-1.23-.33-1.85-.45.65-1,1.3-1.4,2l-.49-.17c-.11-1.15-.17-2.32-.26-3.47-.66.9-1.33,1.81-2,2.74l-.11,0c.92-1.46,2-2.92,3.11-4.37-1.55,1.16-3.07,2.33-4.48,3.52a22.12,22.12,0,0,1-.13-4.3,18.57,18.57,0,0,0-1.72,6l-.43.4-.44.44H131l-.44-.31a4.12,4.12,0,0,0-.79-.38,8.79,8.79,0,0,1-3-1.56c.17.79,1.12,1.47,1.77,2l.22.21.09.14a.41.41,0,0,0,.05.09l-.76.61c-.76-.54-1.52-1.1-2.24-1.7a16.2,16.2,0,0,0,.88,2.11l-.9,0-1.9-.43-.69-.18a19.76,19.76,0,0,1,0-2.31,5.42,5.42,0,0,0-1,2,23.75,23.75,0,0,1-2.38-.82,5.45,5.45,0,0,1-1.65-.94.93.93,0,0,1-.09-1.45c-.75.53-1,1.15-.77,1.64a3.15,3.15,0,0,0,1.15,1.28,31.23,31.23,0,0,0,2.94,1.83l-1,.27-.24,0-.18-.05.13.06-.46.07-3.61-1.46,1.58,1.94-1.28.86-2.37.73,1.59,1.63,1.11,1.79-1.6.85,3.86-.09,1.77.3,1.83.79,1.87.86.41-.93,3.16.51,5-1.28,3.17,2,2.17,1.54h0l2.53-.14,2,1.26,4.57-.88.18,1.62,2.66-.83,2.38.34,2.53-.47,3.16-2.18,1.69,2.32,6.45-1.81,3.62.51,3.16,1.27,1.31.47,2.39.87,2.45-.28,2.44-.3,2.43-.35,2.89.65,2.43-.73,2,.66,2.44.24,2.41-.71,2.44.12,2.5,1,2.33-1.42,2.46.22,1.83-1.7,3.09,2.17,2.37-.64,2.57,1,2.23-1.54,2.53.6,2.52.42,2.35-.59,2.59.69-.36-1.87,4.9.18,2.7,1,2.33-.52,2.38-.29,1.7-1.91,3.28,2.11,1.69-2.62,1.36-.51,1.81.26.45-1.28,2.71-.25.45-2c.37.09,3.25.42,3.62.51l3.16.26h0l4.52-1,4.07,1.53,1.39-1.06Zm-136.27-6.38v-.13l.24-.41.09.07Zm13.34-.44-2-.59,1.59-1.62,2.15,1.19C149.43,442.94,148.84,443.28,148.27,443.63Zm-.25-2.35.43-.44q.9.62,1.89,1.2Zm14.64.63-.58-.49,0-.05c.18.14.38.27.58.4s.22.12.32.19Zm8.24.15c-.06-.13-.11-.26-.17-.38l.08-.09h-.13l-.14-.27a8.82,8.82,0,0,0,1,.57Zm20.38-2.4-1.93-1.15a13,13,0,0,1,1.66.86l.38.25Zm1.39.82-.52-.31,0,0,.31.2.19.13Zm1-1-.23-.09.29-.18Zm7.6,2.51-.6.2-1.16-.38a2.53,2.53,0,0,1,.13-.22,7.54,7.54,0,0,1,1-1,7.78,7.78,0,0,0,1.36,1.4c.32.27.66.52,1,.78Zm5.5,0,0-.13.19.18Zm4.65,1a1.2,1.2,0,0,0-.21-.31c.08-.13.14,0,.24-.16.07.13.14.31.22.5Zm9-3.87.35.16.91.43-1.09.48Zm.31,1.83,0-.16c.31-.36.64-.71,1-1.06l.64.31Zm3.45,1.2c-.15-.23-.3-.47-.47-.69-.43.48-1,.95-1.42,1.49l-1,.33-.07,0c-.06-.24-.11-.49-.17-.73.83-.66,1.65-1.31,2.45-2l.39.19.56.29c.14.26.29.51.44.76A7.76,7.76,0,0,0,224.12,442.07Zm1.71,1.55a1.42,1.42,0,0,1,.12-.13l.05-.05a2.67,2.67,0,0,1,.19.28Zm4-1.68-.72-.38,3.22-1.32A24.76,24.76,0,0,1,229.84,441.94Zm8.56,2.15c-.8.19-1.58.42-2.36.66l-.3,0,1-.58c.68-.37,1.41-.73,2.16-1.08a8.39,8.39,0,0,1,.27.85Zm13,2.27-.42.14-.15,0c.26-.23.52-.46.8-.68Z"/></g></g></svg>