<svg xmlns="http://www.w3.org/2000/svg" viewBox="0 0 955.94 268.01"><defs><style>.cls-1{fill:#c3ae88;}</style></defs><title>ue_mae</title><g id="レイヤー_2" data-name="レイヤー 2"><g id="img"><path class="cls-1" d="M774.7,41.76h0a6.38,6.38,0,0,1,1.15.1,6.5,6.5,0,0,1-1.12,12.9,6.41,6.41,0,0,1-1.16-.1,6.5,6.5,0,0,1,1.13-12.9m0-5a11.5,11.5,0,0,0-2,22.82,11.89,11.89,0,0,0,2,.18,11.5,11.5,0,0,0,2-22.82,11.69,11.69,0,0,0-2-.18Z"/><circle class="cls-1" cx="940.44" cy="252.51" r="15.5"/><path class="cls-1" d="M261.8,130.32h0a6.5,6.5,0,1,1-5.72,3.39,6.49,6.49,0,0,1,5.72-3.39m0-5a11.49,11.49,0,1,0,5.5,1.4,11.52,11.52,0,0,0-5.5-1.4Z"/><circle class="cls-1" cx="15.5" cy="229.17" r="15.5"/><circle class="cls-1" cx="501.53" cy="33" r="33"/></g></g></svg>