<svg xmlns="http://www.w3.org/2000/svg" viewBox="0 0 853.95 293.79"><defs><style>.cls-1{fill:#327d64;}.cls-2{fill:#a1a1a1;}</style></defs><title>ue_ushiro</title><g id="レイヤー_2" data-name="レイヤー 2"><g id="img"><path class="cls-1" d="M301.32,264.65h1.18s.06.09.1.09a4.08,4.08,0,0,1,2.47,1.65c1.91,2.51,3.86,5,5.78,7.48.21.27.35.32.67.17,2.87-1.34,5.74-2.65,8.61-4a3.73,3.73,0,0,1,5,1.22q2.89,3.71,5.76,7.43a.53.53,0,0,0,.8.19q4.37-2,8.74-4a3.69,3.69,0,0,1,4.66,1.15q4,5.12,7.94,10.22a3.74,3.74,0,0,1,.81,1.87c0,.08,0,.17.11.2V289c-.19.09-.13.29-.17.43a3.65,3.65,0,0,1-2.94,2.81c-.09,0-.2,0-.25.11h-.88s-.07-.08-.11-.09a4.16,4.16,0,0,1-2.66-1.78c-1.89-2.48-3.82-4.93-5.72-7.4a.44.44,0,0,0-.64-.14c-2.85,1.33-5.71,2.64-8.57,4a3.76,3.76,0,0,1-5.08-1.22c-1.9-2.45-3.81-4.9-5.69-7.36-.29-.39-.5-.39-.91-.2-2.89,1.35-5.8,2.68-8.7,4A3.68,3.68,0,0,1,307,281c-1.66-2.14-3.37-4.24-5-6.43-1.35-1.84-3.14-3.39-3.88-5.66v-1c.14,0,.1-.19.13-.29a3.67,3.67,0,0,1,2.79-2.84C301.16,264.74,301.28,264.78,301.32,264.65Z"/><path class="cls-2" d="M697.24,134.53a5.16,5.16,0,0,1-1.16-.13l-42.93-10.19a5,5,0,0,1,2.31-9.73l42.93,10.19a5,5,0,0,1-1.15,9.86Z"/><path class="cls-1" d="M547.21,90.59l.21-1.17s.09,0,.1-.08a4.06,4.06,0,0,1,2.06-2.14c2.8-1.45,5.58-2.93,8.38-4.38.3-.16.37-.29.28-.63-.81-3.06-1.6-6.12-2.4-9.18a3.72,3.72,0,0,1,2.07-4.71q4.15-2.19,8.33-4.36c.37-.19.43-.36.33-.75-.83-3.1-1.64-6.21-2.45-9.32a3.69,3.69,0,0,1,2-4.38l11.46-6a3.83,3.83,0,0,1,2-.47c.07,0,.16,0,.21-.07l.67.12c.06.2.27.18.4.24a3.67,3.67,0,0,1,2.26,3.39c0,.09-.06.2.05.26l-.15.87s-.09.05-.11.09a4.13,4.13,0,0,1-2.22,2.31c-2.77,1.43-5.52,2.9-8.28,4.34-.3.15-.34.3-.26.6.81,3,1.6,6.09,2.4,9.13a3.74,3.74,0,0,1-2.1,4.78c-2.74,1.45-5.48,2.9-8.24,4.32-.43.22-.47.43-.36.86.83,3.08,1.63,6.18,2.43,9.27a3.67,3.67,0,0,1-1.94,4.34c-2.39,1.26-4.76,2.58-7.19,3.77-2.06,1-3.9,2.5-6.26,2.83l-1-.18c0-.15-.17-.13-.27-.17a3.7,3.7,0,0,1-2.31-3.25C547.27,90.75,547.33,90.64,547.21,90.59Z"/><path class="cls-1" d="M798.43,99.08l.85-.82c.05,0,.11,0,.14,0a4,4,0,0,1,2.92-.53c3.12.48,6.24.91,9.36,1.37.33.05.47,0,.6-.34,1.13-3,2.29-5.89,3.44-8.84a3.73,3.73,0,0,1,4.44-2.59c3.11.45,6.21.89,9.31,1.36.41.07.56,0,.71-.41q1.72-4.5,3.49-9a3.69,3.69,0,0,1,4.15-2.4l12.82,1.85a3.84,3.84,0,0,1,1.88.79c.06,0,.11.12.21.07l.48.5c-.07.19.11.29.18.42a3.66,3.66,0,0,1-.17,4.07c0,.07-.16.12-.1.24l-.64.62s-.11,0-.14,0a4.15,4.15,0,0,1-3.15.56c-3.08-.47-6.17-.89-9.26-1.36-.33,0-.44,0-.56.34-1.13,2.94-2.28,5.86-3.42,8.8a3.76,3.76,0,0,1-4.51,2.64c-3.07-.45-6.14-.88-9.2-1.36-.48-.07-.64.07-.8.49-1.14,3-2.31,6-3.48,8.93a3.68,3.68,0,0,1-4.12,2.38c-2.68-.39-5.37-.72-8-1.18-2.25-.4-4.62-.27-6.72-1.39l-.68-.71c.06-.14-.07-.21-.12-.3a3.7,3.7,0,0,1,0-4C798.39,99.25,798.5,99.2,798.43,99.08Z"/><path class="cls-2" d="M16,135.06a5,5,0,0,1-4.24-7.64L35,89.94a5,5,0,1,1,8.49,5.27L20.23,132.69A5,5,0,0,1,16,135.06Z"/><path class="cls-1" d="M100.52.14l1,.57s0,.1,0,.12A4,4,0,0,1,103,3.47c.48,3.11,1,6.22,1.5,9.33,0,.33.15.45.51.47,3.15.19,6.31.42,9.46.63a3.74,3.74,0,0,1,3.81,3.46c.5,3.09,1,6.18,1.49,9.28.07.41.21.53.61.55,3.21.2,6.41.42,9.62.64a3.68,3.68,0,0,1,3.53,3.24q1.05,6.39,2.08,12.78a3.8,3.8,0,0,1-.18,2c0,.07-.08.15,0,.22l-.33.61c-.2,0-.24.19-.34.3a3.68,3.68,0,0,1-3.94,1.06c-.08,0-.16-.12-.26,0l-.78-.42s0-.11-.05-.13a4.15,4.15,0,0,1-1.49-2.84c-.47-3.08-1-6.15-1.48-9.23,0-.34-.18-.41-.49-.43-3.14-.2-6.28-.42-9.41-.63a3.75,3.75,0,0,1-3.88-3.5c-.49-3.07-1-6.13-1.47-9.19-.08-.48-.26-.59-.71-.61-3.18-.2-6.37-.42-9.56-.64a3.68,3.68,0,0,1-3.5-3.22c-.44-2.67-.93-5.34-1.29-8-.3-2.27-1.14-4.49-.69-6.83l.47-.87c.15,0,.18-.12.25-.19A3.68,3.68,0,0,1,100.26.13C100.34.15,100.43.24,100.52.14Z"/><path class="cls-1" d="M12.75,235.68l.51,1.07c0,.05,0,.09,0,.13a4,4,0,0,1-.44,2.94c-1.43,2.8-2.83,5.63-4.26,8.43-.16.31-.14.46.13.68,2.44,2,4.86,4,7.29,6.07a3.74,3.74,0,0,1,1,5q-2.11,4.2-4.25,8.39a.54.54,0,0,0,.17.8q3.72,3.07,7.41,6.16a3.7,3.7,0,0,1,1,4.71q-2.91,5.77-5.83,11.56a3.74,3.74,0,0,1-1.34,1.53c-.06.05-.15.07-.13.18l-.62.3c-.17-.13-.32,0-.46,0a3.67,3.67,0,0,1-3.81-1.46c-.06-.07-.06-.19-.2-.17l-.38-.8s.05-.1,0-.14A4.16,4.16,0,0,1,9,288c1.43-2.77,2.81-5.56,4.23-8.34.15-.3.09-.44-.15-.64q-3.63-3-7.25-6a3.75,3.75,0,0,1-1.08-5.11c1.4-2.77,2.79-5.54,4.21-8.3.22-.43.13-.62-.21-.91q-3.7-3-7.37-6.13a3.68,3.68,0,0,1-.94-4.66c1.22-2.42,2.38-4.87,3.67-7.25,1.09-2,1.72-4.3,3.45-5.94l.89-.42c.11.11.22,0,.32,0a3.68,3.68,0,0,1,3.76,1.3C12.6,235.58,12.62,235.71,12.75,235.68Z"/></g></g></svg>